<svg width="777" height="700" viewBox="0 0 777 700" fill="none" xmlns="http://www.w3.org/2000/svg">
<path d="M718.5 334.244C718.5 516.498 570.754 664.244 388.5 664.244C206.246 664.244 58.5 516.498 58.5 334.244C58.5 151.99 206.246 4.24414 388.5 4.24414C570.754 4.24414 718.5 151.99 718.5 334.244Z" fill="#FBCE51"/>
<g style="mix-blend-mode:overlay">
<path d="M531.036 617.3L530.644 616.482L532.141 615.457L527.962 607.106L527.629 609.869L525.724 618.118L525.908 618.574L527.467 618.076L527.859 618.894L523.262 621.227L522.87 620.409L524.126 619.523L518.979 609.079L517.515 609.603L517.123 608.785L521.815 606.477L522.207 607.295L520.856 608.156L525.105 616.628L525.387 614.055L527.343 605.616L526.995 605.013L525.315 605.582L524.923 604.764L529.615 602.456L530.007 603.274L528.656 604.134L533.803 614.578L535.242 614.149L535.634 614.967L531.036 617.3Z" fill="black"/>
<path d="M519.66 622.502C519.153 622.876 518.792 623.084 518.43 623.293C518.069 623.502 517.707 623.711 517.371 623.824C515.976 624.469 514.778 624.759 513.802 624.599C512.826 624.44 512.142 623.951 511.706 622.918C511.34 622.004 511.258 621.168 511.583 620.338C511.907 619.508 512.491 618.85 513.239 618.337C512.206 618.773 511.274 618.829 510.419 618.6C509.589 618.276 509.025 617.717 508.633 616.899C508.058 615.625 508.028 614.598 508.498 613.604C508.968 612.609 510.009 611.768 511.645 610.984C512.342 610.661 513.014 610.434 513.54 610.371C514.092 610.213 514.618 610.151 514.928 610.132C515.239 610.113 515.455 610.069 515.55 610.095L516.547 613.214L515.729 613.606L514.236 611.576C513.545 611.493 512.778 611.695 511.745 612.131C510.952 612.428 510.514 612.922 510.336 613.587C510.158 614.252 510.264 614.994 510.631 615.907C510.953 616.604 511.422 617.137 512.061 617.411C512.701 617.684 513.538 617.602 514.571 617.166L515.726 616.661L516.187 617.599L515.153 618.035C514.697 618.219 514.31 618.522 513.898 618.921C513.58 619.345 513.358 619.795 513.231 620.27C513.198 620.771 513.236 621.392 513.488 621.969C513.785 622.762 514.279 623.199 514.849 623.352C515.419 623.505 516.066 623.373 516.859 623.076C517.341 622.797 517.797 622.614 518.089 622.285C518.381 621.956 518.552 621.696 518.603 621.506L518.25 619.782L519.31 619.251L520.65 621.851C520.529 621.92 520.168 622.129 519.66 622.502Z" fill="black"/>
<path d="M504.437 627.998L505.946 627.689L506.312 628.602L503.935 629.493C503.573 629.702 503.022 629.859 502.445 630.112C501.868 630.365 501.506 630.574 501.265 630.713C499.68 631.307 498.412 631.476 497.557 631.247C496.702 631.018 496.043 630.434 495.702 629.426C495.405 628.633 495.324 627.797 495.623 627.062C495.826 626.302 496.41 625.643 497.133 625.226C496.005 625.637 495.048 625.787 494.218 625.463C493.388 625.139 492.729 624.555 492.388 623.547C491.883 622.393 491.973 621.297 492.563 620.233C493.154 619.169 494.315 618.258 496.236 617.55C496.693 617.367 497.029 617.253 497.46 617.165C498.347 616.893 498.924 616.641 499.14 616.597L501.423 615.68L501.694 616.568L500.273 617.308L504.437 627.998ZM496.533 618.343C495.379 618.848 494.631 619.361 494.237 620.07C493.843 620.779 493.95 621.521 494.221 622.409C494.588 623.322 495.056 623.855 495.696 624.128C496.336 624.401 497.172 624.32 498.206 623.884C499.36 623.378 500.127 623.176 500.489 622.967L498.524 617.756C498.118 617.749 497.541 618.002 496.533 618.343ZM499.796 624.412L498.883 624.778C498.09 625.075 497.557 625.543 497.284 626.183C497.011 626.823 497.023 627.539 497.415 628.357C497.712 629.15 498.18 629.683 498.725 629.93C499.269 630.178 500.106 630.097 501.14 629.661C501.596 629.478 501.958 629.269 502.414 629.086L502.776 628.877L500.925 624.001C500.684 624.14 500.348 624.254 499.796 624.412Z" fill="black"/>
<path d="M489.599 634.717L487.678 635.425L479.268 624.615L478.095 624.81L477.824 623.923L482.528 622.331L482.8 623.219L481.405 623.864L483.107 626.255L488.268 624.48L488.22 621.616L486.617 621.899L486.345 621.011L490.593 619.603L490.865 620.491L489.806 621.022L489.599 634.717ZM487.612 632.25L488.567 633.626L488.43 631.858L488.273 625.602L483.784 627.15L487.612 632.25Z" fill="black"/>
<path d="M474.983 625.402C476.123 625.708 476.997 626.248 477.77 627.168C478.542 628.087 479.168 629.172 479.502 630.586C479.862 631.904 479.936 633.147 479.7 634.407C479.464 635.668 478.899 636.637 478.074 637.435C477.249 638.232 476.26 638.884 475.036 639.269C474.149 639.541 472.976 639.736 471.639 639.785L471.017 639.822L470.261 636.564L471.484 636.178L472.642 638.322C472.832 638.373 473.212 638.475 473.617 638.482C474.023 638.488 474.575 638.331 475.221 638.198C475.988 637.996 476.616 637.554 477.08 636.965C477.543 636.376 477.867 635.546 477.906 634.64C477.945 633.734 477.845 632.586 477.53 631.483C477.214 630.38 476.778 629.347 476.171 628.573C475.563 627.799 474.93 627.12 474.195 626.821C473.461 626.522 472.58 626.388 471.692 626.66C471.046 626.792 470.564 627.07 470.323 627.209C470.082 627.348 469.79 627.678 469.618 627.937L469.394 629.914L468.222 630.109L467.908 627.479C468.123 627.435 468.485 627.226 468.967 626.948C469.354 626.644 469.715 626.435 470.172 626.252C470.533 626.044 471.085 625.886 471.636 625.728C472.695 625.197 473.843 625.097 474.983 625.402Z" fill="black"/>
<path d="M460.896 639.962C460.521 640.982 459.956 641.951 459.277 642.584C458.478 643.286 457.634 643.773 456.677 643.924C455.479 644.214 454.382 644.124 453.458 643.775C452.533 643.425 451.684 642.79 451.007 641.896C450.33 641.001 449.799 639.942 449.56 638.554C449.251 637.045 449.202 635.708 449.413 634.542C449.649 633.281 450.214 632.312 450.944 631.489C451.673 630.666 452.612 630.205 453.715 629.889C454.913 629.599 456.035 629.594 457.055 629.969C458.075 630.344 458.828 630.954 459.531 631.753C460.208 632.648 460.739 633.707 460.978 635.095L463.9 634.452L462.677 629.133L461.099 629.321L460.923 628.459L465.931 627.255L466.107 628.117L464.643 628.641L467.316 639.951L468.774 639.832L468.95 640.694L464.063 641.829L463.886 640.967L465.351 640.443L464.216 635.555L461.268 636.293C461.292 637.725 461.176 638.917 460.896 639.962ZM458.829 640.834C459.255 639.624 459.257 638.097 458.79 636.037C458.343 634.287 457.698 632.892 456.805 632.041C455.913 631.191 454.893 630.816 453.6 631.081C452.401 631.371 451.697 632.099 451.296 633.214C450.896 634.329 450.964 635.976 451.43 638.037C451.878 639.786 452.428 641.156 453.32 642.006C454.187 642.952 455.233 643.232 456.336 642.916C457.604 642.747 458.403 642.044 458.829 640.834Z" fill="black"/>
<path d="M439.622 639.151C439.058 638.592 438.235 637.862 437.368 636.917C436.735 636.238 436.362 635.731 436.033 635.439C435.704 635.147 435.444 634.975 435.254 634.925L434.563 634.841L434.387 633.979L436.637 633.564C436.948 633.545 437.302 633.742 437.701 634.154C438.1 634.567 438.733 635.246 439.41 636.14C440.252 637.18 440.885 637.859 441.448 638.418C441.916 638.951 442.366 639.173 442.797 639.085L443.97 638.89L443.032 633.647L441.384 633.715L441.207 632.853L446.234 631.959L446.385 632.916L444.946 633.345L446.973 644.787L448.5 644.789L448.651 645.746L443.745 646.571L443.645 645.423L445.11 644.899L444.197 639.562L442.593 639.845L439.772 645.812L441.325 645.718L441.476 646.676L436.975 647.507L436.824 646.55L438.264 646.12L441.326 640.015C440.825 639.982 440.211 639.614 439.622 639.151Z" fill="black"/>
<path d="M431.268 634.977C432.262 635.447 432.99 636.151 433.521 637.21C434.078 638.174 434.463 639.398 434.702 640.786C434.941 642.174 434.8 643.461 434.374 644.671C433.974 645.786 433.313 646.729 432.514 647.432C431.619 648.109 430.681 648.57 429.413 648.74C427.499 649.042 425.883 648.609 424.757 647.492C423.63 646.375 422.82 644.834 422.595 642.635C422.381 641.152 422.522 639.865 422.923 638.75C423.349 637.54 423.984 636.692 424.808 635.894C425.703 635.217 426.736 634.781 427.909 634.586C429.177 634.417 430.273 634.507 431.268 634.977ZM432.041 645.777C432.562 644.592 432.754 643.116 432.503 641.012C432.296 639.123 431.746 637.753 430.904 636.713C430.063 635.672 429.043 635.297 427.87 635.492C426.697 635.687 425.828 636.269 425.307 637.454C424.786 638.638 424.569 640.21 424.845 642.219C425.052 644.108 425.602 645.478 426.469 646.423C427.241 647.343 428.236 647.813 429.503 647.644C430.625 647.639 431.519 646.961 432.041 645.777Z" fill="black"/>
<path d="M419.894 648.532L421.396 648.629L421.452 649.56L418.942 649.805C418.536 649.798 417.985 649.956 417.364 649.993C416.717 650.125 416.312 650.118 416.096 650.162C414.423 650.325 413.136 650.184 412.357 649.67C411.578 649.156 411.161 648.433 411.036 647.381C410.954 646.544 411.183 645.689 411.552 645.074C411.92 644.46 412.668 643.948 413.556 643.676C412.409 643.776 411.433 643.616 410.654 643.102C409.875 642.588 409.483 641.77 409.427 640.838C409.353 639.596 409.633 638.551 410.483 637.658C411.333 636.765 412.703 636.216 414.782 636.06C415.213 635.972 415.619 635.978 416.119 636.011C417.051 635.955 417.672 635.917 417.862 635.968L420.372 635.724L420.428 636.656L418.919 636.965L419.894 648.532ZM414.907 637.112C413.665 637.186 412.752 637.553 412.289 638.142C411.73 638.705 411.527 639.465 411.678 640.423C411.734 641.354 412.056 642.052 412.575 642.395C413.095 642.738 413.95 642.967 415.002 642.841C416.244 642.767 417.081 642.685 417.417 642.572L416.961 637.051C416.581 636.949 415.96 636.986 414.907 637.112ZM416.465 643.844L415.413 643.97C414.576 644.051 413.878 644.374 413.536 644.893C413.193 645.412 412.989 646.172 413.07 647.009C413.152 647.846 413.379 648.518 413.898 648.861C414.418 649.203 415.178 649.407 416.23 649.282C416.661 649.193 417.162 649.226 417.618 649.043L418.049 648.954L417.612 643.744C417.301 643.763 416.991 643.782 416.465 643.844Z" fill="black"/>
<path d="M390.542 651.26L390.486 650.328L392.089 650.045L391.736 638.44L389.949 638.267L389.893 637.336L395.121 637.209L395.177 638.14L393.599 638.329L393.927 650.028L399.872 649.89L399.544 638.19L397.852 638.042L397.796 637.11L403.025 636.984L403.081 637.915L401.597 638.129L401.951 649.734L403.523 649.951L403.578 650.883L390.542 651.26Z" fill="black"/>
<path d="M386.134 638.06C386.982 638.695 387.685 639.494 388.095 640.623C388.531 641.656 388.701 642.924 388.725 644.356C388.653 645.763 388.417 647.024 387.826 648.088C387.236 649.152 386.506 649.975 385.542 650.532C384.578 651.088 383.475 651.404 382.353 651.409C380.42 651.4 378.976 650.708 377.97 649.521C376.989 648.24 376.516 646.585 376.506 644.342C376.482 642.909 376.839 641.579 377.429 640.515C378.02 639.451 378.775 638.533 379.739 637.976C380.703 637.42 381.806 637.104 383.023 637.125C384.24 637.145 385.285 637.425 386.134 638.06ZM385.379 648.858C386.065 647.82 386.472 646.299 386.506 644.271C386.49 642.433 386.181 640.925 385.555 639.84C384.929 638.756 383.96 638.19 382.743 638.17C381.526 638.15 380.562 638.706 379.876 639.745C379.191 640.783 378.758 642.399 378.724 644.427C378.715 646.36 378.954 647.748 379.675 648.858C380.301 649.942 381.27 650.507 382.487 650.528C383.66 650.333 384.598 649.871 385.379 648.858Z" fill="black"/>
<path d="M370.627 641.952C370.991 640.216 371.417 639.006 372.051 638.157C372.369 637.733 372.661 637.404 373.022 637.195C373.384 636.986 373.815 636.898 374.22 636.905C374.816 636.963 375.222 636.97 375.507 637.046L375.505 638.573C375.22 638.497 374.719 638.465 374.124 638.407C373.933 638.356 373.718 638.4 373.477 638.539C373.236 638.678 373.09 638.843 372.944 639.007C371.846 640.445 371.247 643.442 370.956 647.947L370.859 649.449L373.001 649.82L372.962 650.726L362.138 650.066L362.177 649.16L363.945 649.023L364.713 637.413L362.857 637.119L362.896 636.213L368.593 636.619L368.554 637.526L366.595 637.612L365.827 649.222L369.642 649.429L369.79 647.737C370.065 645.57 370.289 643.593 370.627 641.952Z" fill="black"/>
<path d="M358.749 648.649L360.269 649.057L360.135 649.937L350.63 648.918L350.703 645.984L351.8 646.074L352.127 647.893L356.746 648.52L357.336 643.279L354.262 642.965L353.855 644.486L352.854 644.421L353.283 640.156L354.285 640.221L354.352 641.869L357.4 642.278L357.971 636.727L352.68 636.328L351.473 638.551L350.383 638.055L351.249 634.824L361.54 635.952L361.406 636.833L359.878 636.831L358.749 648.649Z" fill="black"/>
<path d="M343.313 646.957L346.481 647.297L347.69 643.547L348.855 643.757L347.842 648.68L336.297 646.911L336.81 641.956L337.976 642.166L338.028 646.153L341.24 646.708L342.94 635.042L340.349 634.45L340.483 633.569L347.529 634.642L347.395 635.523L344.987 635.387L343.313 646.957Z" fill="black"/>
<path d="M329.983 637.784L330.863 637.918C331.2 637.804 331.612 637.405 331.955 636.886C332.298 636.367 332.881 635.708 333.396 634.929C333.91 634.151 334.373 633.562 334.691 633.137C335.008 632.713 335.249 632.574 335.439 632.625L337.961 633.097L337.827 633.978L337.085 634.085C336.87 634.129 336.654 634.173 336.362 634.502C336.096 634.736 335.658 635.23 335.195 635.819C334.585 636.572 334.122 637.161 333.709 637.56C333.272 638.054 332.91 638.262 332.454 638.446C333.258 638.865 333.821 639.423 334.144 640.121C334.466 640.818 334.547 641.655 334.388 642.631C334.101 644.082 333.441 645.025 332.528 645.392C331.52 645.733 330.277 645.807 328.636 645.47C328.256 645.368 327.876 645.266 327.306 645.113C326.736 644.96 326.26 644.833 325.975 644.757L323.358 644.259L323.493 643.378L325.09 643.501L327.334 632.083L325.649 631.53L325.783 630.649L331.207 631.695L331.073 632.575L329.286 632.402L328.393 637.256L329.983 637.784ZM327.44 644.232C328.01 644.385 328.485 644.512 328.865 644.614C329.841 644.774 330.557 644.762 331.16 644.414C331.762 644.066 332.131 643.452 332.316 642.381C332.475 641.405 332.394 640.569 331.951 639.941C331.508 639.313 330.894 638.944 329.944 638.69C328.968 638.53 328.303 638.352 327.992 638.371L326.895 643.984L327.44 644.232Z" fill="black"/>
<path d="M316.859 641.906L320.046 642.557L321.54 638.883L322.775 639.214L321.286 644.009L309.996 641.29L310.915 636.341L312.055 636.647L311.702 640.626L314.838 641.467L317.513 629.961L314.973 629.178L315.202 628.323L322.191 629.992L321.961 630.847L319.509 630.495L316.859 641.906Z" fill="black"/>
<path d="M304.855 626.263C305.653 627.088 306.089 628.122 306.284 629.294C306.479 630.467 306.338 631.754 305.956 633.179C305.6 634.509 304.888 635.643 304.064 636.441C303.213 637.333 302.154 637.864 301.051 638.18C299.853 638.47 298.757 638.38 297.521 638.049C296.571 637.794 295.576 637.324 294.322 636.682L293.778 636.435L294.928 633.28L296.164 633.611L295.933 635.994C296.072 636.235 296.332 636.406 296.686 636.603C297.041 636.8 297.586 637.048 298.156 637.2C298.916 637.404 299.632 637.392 300.4 637.19C301.072 636.963 301.82 636.451 302.334 635.672C302.944 634.918 303.414 633.924 303.719 632.783C304.025 631.643 304.21 630.572 304.18 629.545C304.149 628.519 303.878 627.631 303.46 626.908C303.043 626.185 302.359 625.696 301.409 625.442C300.743 625.263 300.268 625.136 299.863 625.129C299.457 625.122 299.121 625.236 298.88 625.375L297.661 626.882L296.572 626.387L297.735 623.948C298.02 624.024 298.425 624.031 298.926 624.063C299.427 624.096 299.832 624.103 300.238 624.109C300.643 624.116 301.214 624.269 301.784 624.422C303.019 624.753 304.083 625.344 304.855 626.263Z" fill="black"/>
<path d="M286.416 634.259L286.74 633.429L288.571 633.817L291.656 624.968L289.48 626.625L282.269 631.11L282.141 631.585L283.68 632.303L283.356 633.133L278.516 631.429L278.841 630.599L280.291 630.886L284.056 619.876L282.612 619.183L282.937 618.353L287.872 620.083L287.547 620.913L285.906 620.575L282.796 629.52L284.852 627.932L292.278 623.403L292.457 622.738L290.823 621.994L291.147 621.164L296.082 622.894L295.757 623.724L294.211 623.411L290.446 634.422L291.796 635.089L291.471 635.919L286.416 634.259Z" fill="black"/>
<path d="M267.323 627.207L268.976 622.557L270.186 622.983L269.288 626.715L273.031 628.329L277.392 617.377L274.409 615.966L274.733 615.137L281.562 617.781L281.238 618.611L279.242 618.076L275.027 628.864L276.801 629.849L276.476 630.678L267.323 627.207Z" fill="black"/>
<path d="M264.784 624.897L265.987 625.729L265.663 626.559L261.02 624.5L261.344 623.67L262.865 624.077L264.898 619.53L258.881 616.899L256.847 621.446L258.145 622.304L257.821 623.133L253.273 621.1L253.597 620.27L255.023 620.652L259.713 609.992L258.389 609.229L258.713 608.4L263.261 610.433L262.937 611.263L261.442 610.76L259.186 615.758L265.204 618.389L267.46 613.391L266.041 612.604L266.365 611.774L271.103 613.858L270.779 614.688L269.379 614.211L264.784 624.897Z" fill="black"/>
<path d="M247.073 618.012L245.274 617.123L246.982 603.524L246.039 602.864L246.458 602.06L250.86 604.258L250.441 605.062L248.946 604.56L248.492 607.392L253.344 609.813L255.336 607.698L253.943 606.816L254.362 606.011L258.315 607.987L257.896 608.791L256.781 608.391L247.073 618.012ZM247.317 614.818L246.979 616.46L248.147 615.143L252.519 610.61L248.307 608.463L247.317 614.818Z" fill="black"/>
<path d="M239.763 604.239C240.835 602.896 241.806 601.934 242.675 601.352C243.157 601.074 243.493 600.96 243.924 600.872C244.33 600.879 244.71 600.981 245.16 601.203C245.704 601.451 246.034 601.743 246.293 601.914L245.721 603.289C245.461 603.117 245.107 602.92 244.493 602.552C244.328 602.406 244.138 602.355 243.922 602.399C243.707 602.443 243.491 602.487 243.25 602.627C241.709 603.436 239.83 605.886 237.544 609.857L236.782 611.181L238.574 612.476L238.155 613.28L228.769 608.015L229.188 607.211L230.848 607.859L236.532 597.669L234.974 596.64L235.393 595.836L240.454 598.618L240.035 599.422L238.305 598.653L232.646 608.749L235.934 610.546L236.747 609.032C237.636 607.234 238.69 605.581 239.763 604.239Z" fill="black"/>
<path d="M211.714 597.538L212.228 596.759L213.862 597.502L220.066 587.655L218.724 586.582L219.238 585.803L223.842 588.768L223.328 589.547L221.788 588.829L215.585 598.677L216.927 599.75L216.413 600.528L211.714 597.538ZM224.527 599.138C223.228 598.28 222.456 597.36 222.115 596.352C221.774 595.344 221.959 594.273 222.671 593.14C223.407 591.911 224.397 591.26 225.569 591.065C226.742 590.87 227.977 591.201 229.301 591.963C229.466 592.109 229.656 592.16 229.82 592.306C229.985 592.452 230.15 592.598 230.34 592.648C230.929 593.112 231.448 593.455 231.872 593.772L234.044 595.169L233.53 595.948L232.086 595.255L225.882 605.103L227.034 606.125L226.52 606.903L221.986 604.059L222.5 603.28L224.229 604.049L226.534 600.388L224.527 599.138ZM229.87 593.643C229.705 593.497 229.445 593.325 228.996 593.103C228.122 592.563 227.266 592.334 226.499 592.536C225.732 592.738 225.079 593.276 224.418 594.219C223.879 595.093 223.675 595.854 223.877 596.621C224.079 597.388 224.617 598.041 225.491 598.581L227.144 599.635L230.502 594.322C230.294 593.96 230.129 593.814 229.87 593.643Z" fill="black"/>
<path d="M205.276 591.535L206.308 592.626L205.793 593.405L201.715 590.377L202.23 589.598L203.648 590.386L206.676 586.308L201.395 582.448L198.367 586.526L199.399 587.617L198.885 588.396L194.902 585.394L195.416 584.615L196.766 585.282L203.653 575.923L202.596 574.927L203.11 574.148L207.188 577.176L206.674 577.955L205.35 577.193L202.151 581.53L207.432 585.39L210.631 581.052L209.409 579.91L209.923 579.131L214.096 582.184L213.582 582.963L212.258 582.201L205.276 591.535Z" fill="black"/>
<path d="M189.438 581.077L187.862 579.738L192.447 566.809L191.675 565.889L192.258 565.23L196.121 568.302L195.511 569.056L194.213 568.199L193.19 570.878L197.451 574.363L199.912 572.781L198.785 571.665L199.369 571.006L202.807 573.761L202.223 574.419L201.159 573.829L189.438 581.077ZM190.443 578.087L189.82 579.652L191.222 578.602L196.436 575.109L192.764 572.088L190.443 578.087Z" fill="black"/>
<path d="M178.335 570.056L179.645 571.629L179.061 572.287L175.396 568.861L179.157 560.905L180.339 558.777L178.334 560.175L170.743 564.558L167.147 561.252L167.731 560.594L169.428 561.863L176.246 552.384L175.17 551.077L175.754 550.419L179.653 554.112L179.069 554.77L177.702 553.793L172.649 560.485L170.453 563.36L172.863 561.969L181.849 556.941L182.742 557.791L178.897 566.438L177.29 569.776L179.98 567.339L186.28 561.693L185.014 560.335L185.598 559.677L189.193 562.983L188.61 563.642L187.337 562.69L178.335 570.056Z" fill="black"/>
<path d="M162.007 556.106L160.577 554.603L166.701 542.391L166.049 541.402L166.728 540.769L170.152 544.334L169.474 544.967L168.201 544.015L166.797 546.593L170.646 550.476L173.246 549.136L172.265 547.854L172.944 547.221L176.064 550.4L175.386 551.033L174.442 550.373L162.007 556.106ZM163.392 553.218L162.579 554.732L164.12 553.922L169.777 551.058L166.422 547.613L163.392 553.218Z" fill="black"/>
<path d="M155.8 547.72L156.591 548.951L155.912 549.584L154.273 547.719C153.943 547.427 153.64 547.04 153.31 546.748C152.817 546.31 152.348 545.777 151.949 545.364C150.779 544.032 150.178 542.853 150.148 541.826C150.117 540.799 150.657 539.925 151.628 538.963C152.401 538.356 153.15 537.843 153.987 537.762C154.849 537.585 155.73 537.719 156.559 538.044C157.389 538.368 158.143 538.977 158.845 539.777C159.079 540.043 159.314 540.31 159.548 540.576C159.782 540.842 159.921 541.083 160.016 541.109L163.093 538.368L161.505 536.313L162.184 535.68L166.26 540.235L165.581 540.868L164.429 539.847L155.8 547.72ZM158.141 540.505C157.508 539.826 156.703 539.406 155.918 539.298C155.132 539.189 154.098 539.625 153.128 540.587C152.328 541.29 151.934 541.999 151.946 542.715C151.958 543.432 152.35 544.25 153.053 545.049C153.287 545.315 153.616 545.607 153.945 545.899C154.11 546.045 154.274 546.191 154.344 546.312L159.286 541.932C159.052 541.666 158.679 541.158 158.141 540.505Z" fill="black"/>
<path d="M156.1 529.874C156.295 531.047 156.11 532.118 155.52 533.182C155.024 534.271 154.148 535.259 153.082 536.195C152.017 537.132 150.862 537.638 149.69 537.833C148.517 538.028 147.3 538.007 146.211 537.512C145.096 537.111 144.152 536.451 143.311 535.411C142.703 534.637 142.052 533.647 141.451 532.468L141.198 531.891L143.881 529.86L144.653 530.779L143.143 532.615C143.187 532.831 143.206 533.142 143.389 533.598C143.598 533.96 143.876 534.442 144.249 534.949C144.787 535.602 145.401 535.971 146.162 536.175C146.922 536.378 147.759 536.297 148.646 536.025C149.534 535.754 150.498 535.197 151.418 534.425C152.338 533.653 153.042 532.925 153.582 532.051C154.121 531.177 154.446 530.347 154.459 529.536C154.473 528.725 154.176 527.933 153.664 527.184C153.29 526.677 152.866 526.359 152.537 526.067C152.208 525.775 151.922 525.699 151.612 525.718L149.716 526.33L149.065 525.341L151.354 524.019C151.519 524.165 151.848 524.457 152.272 524.774C152.696 525.092 153.051 525.288 153.38 525.58C153.709 525.872 154.013 526.259 154.507 526.697C155.469 527.668 156 528.727 156.1 529.874Z" fill="black"/>
<path d="M125.626 511.319L126.374 510.807L127.52 512.234L135.34 506.996L132.596 506.973L124.162 506.139L123.775 506.443L124.489 507.959L123.741 508.471L120.925 504.152L121.674 503.639L122.706 504.731L132.385 498.259L131.645 496.839L132.393 496.326L135.303 500.671L134.555 501.183L133.479 499.876L125.538 505.184L128.092 505.156L136.717 506.04L137.319 505.693L136.51 504.152L137.258 503.639L140.168 507.984L139.42 508.496L138.413 507.31L128.735 513.782L129.379 515.177L128.631 515.689L125.626 511.319Z" fill="black"/>
<path d="M119.003 500.683C118.604 500.271 118.3 499.884 117.971 499.592C117.642 499.3 117.528 498.964 117.294 498.697C116.529 497.372 116.118 496.243 116.088 495.217C116.057 494.19 116.546 493.506 117.51 492.949C118.354 492.462 119.216 492.286 120.071 492.515C120.926 492.744 121.61 493.233 122.243 493.912C121.687 492.948 121.441 491.965 121.67 491.11C121.899 490.255 122.388 489.571 123.136 489.058C124.246 488.337 125.419 488.142 126.439 488.517C127.459 488.893 128.446 489.768 129.446 491.36C129.794 491.963 130.142 492.565 130.299 493.117C130.457 493.668 130.64 494.125 130.754 494.461C130.868 494.797 130.912 495.013 130.886 495.108L127.976 496.467L127.489 495.623L129.259 493.958C129.247 493.242 128.95 492.45 128.368 491.581C127.951 490.858 127.362 490.394 126.766 490.337C126.171 490.279 125.309 490.455 124.465 490.942C123.837 491.385 123.399 491.879 123.126 492.519C122.948 493.184 123.124 494.046 123.706 494.915L124.427 496.025L123.558 496.607L123.002 495.643C122.723 495.161 122.394 494.869 121.97 494.552C121.546 494.234 121.071 494.107 120.57 494.075C120.069 494.043 119.518 494.2 118.915 494.548C118.192 494.966 117.849 495.485 117.697 496.055C117.639 496.651 117.771 497.297 118.189 498.02C118.467 498.502 118.771 498.889 119.125 499.086C119.455 499.378 119.74 499.454 119.955 499.41L121.635 498.842L122.287 499.831L119.921 501.438C119.731 501.387 119.497 501.121 119.003 500.683Z" fill="black"/>
<path d="M111.656 486.288L112.18 487.752L111.362 488.144L110.136 485.88C109.927 485.519 109.649 485.037 109.275 484.529C108.902 484.022 108.693 483.66 108.554 483.419C107.745 481.878 107.455 480.68 107.494 479.774C107.628 478.893 108.117 478.209 109.081 477.653C109.899 477.261 110.666 477.059 111.426 477.263C112.212 477.371 112.896 477.86 113.434 478.514C112.903 477.455 112.657 476.472 112.886 475.617C113.115 474.761 113.604 474.078 114.542 473.616C115.627 472.99 116.774 472.89 117.863 473.385C118.978 473.786 120.01 474.877 121.028 476.78C121.237 477.141 121.42 477.598 121.629 477.959C122.021 478.777 122.274 479.354 122.438 479.5L123.595 481.644L122.777 482.036L121.892 480.78L111.656 486.288ZM114.654 481.183L114.192 480.245C113.775 479.522 113.306 478.989 112.641 478.811C111.976 478.632 111.329 478.765 110.511 479.157C109.788 479.574 109.255 480.042 109.103 480.613C108.95 481.183 109.152 481.95 109.613 482.888C109.822 483.25 110.1 483.732 110.309 484.093L110.518 484.455L115.141 482.027C115.141 482.027 114.932 481.665 114.654 481.183ZM120.305 477.197C119.679 476.113 119.046 475.434 118.311 475.135C117.576 474.836 116.835 474.943 115.991 475.43C115.148 475.917 114.615 476.386 114.532 477.076C114.449 477.767 114.555 478.509 115.112 479.473C115.738 480.557 116.06 481.255 116.269 481.616L121.159 478.954C121.02 478.713 120.767 478.136 120.305 477.197Z" fill="black"/>
<path d="M103.155 472.398L102.232 470.521L111.845 460.874L111.529 459.771L112.347 459.379L114.516 463.831L113.698 464.223L112.837 462.872L110.68 464.84L113.032 469.748L115.903 469.296L115.405 467.736L116.223 467.344L118.113 471.314L117.295 471.705L116.643 470.716L103.155 472.398ZM105.319 470.024L103.986 471.195L105.711 470.842L111.954 469.969L109.855 465.638L105.319 470.024Z" fill="black"/>
<path d="M110.532 456.652C110.347 457.723 109.851 458.812 109.121 459.635C108.391 460.458 107.256 461.274 105.981 461.85C104.707 462.425 103.439 462.595 102.248 462.479C101.056 462.364 99.9415 461.963 98.998 461.303C98.0545 460.642 97.3079 459.628 96.8022 458.473C96.4357 457.56 96.1202 456.457 95.8556 455.164L95.7233 454.517L98.8935 453.33L99.3991 454.484L97.3948 455.882C97.3438 456.072 97.337 456.478 97.4252 456.909C97.5134 457.34 97.6712 457.891 97.924 458.468C98.2464 459.166 98.6893 459.794 99.3986 460.188C100.108 460.582 100.868 460.785 101.8 460.729C102.732 460.673 103.809 460.453 104.963 459.947C105.997 459.511 106.961 458.955 107.76 458.252C108.56 457.55 109.048 456.866 109.278 456.01C109.602 455.181 109.52 454.344 109.128 453.526C108.876 452.949 108.597 452.467 108.363 452.2C108.129 451.934 107.895 451.667 107.515 451.566L105.487 451.531L105.171 450.428L107.783 449.804C107.922 450.045 108.131 450.407 108.435 450.793C108.738 451.18 109.068 451.472 109.276 451.834C109.485 452.195 109.763 452.677 110.016 453.254C110.522 454.408 110.717 455.581 110.532 456.652Z" fill="black"/>
<path d="M94.341 444.47C93.2701 444.285 92.2757 443.815 91.5222 443.206C90.7688 442.597 90.1868 441.728 89.8457 440.72C89.4351 439.591 89.3097 438.539 89.5898 437.493C89.8699 436.448 90.3146 435.549 91.114 434.846C91.9388 434.049 92.9028 433.492 94.1519 433.012C95.6165 432.488 96.8842 432.318 98.101 432.338C99.2923 432.454 100.407 432.855 101.256 433.489C102.104 434.124 102.781 435.019 103.217 436.052C103.628 437.181 103.728 438.328 103.543 439.399C103.358 440.47 102.818 441.343 101.993 442.141C101.168 442.939 100.179 443.59 98.9299 444.07L100.004 446.905L105.095 445.009L104.717 443.38L105.605 443.109L107.361 447.959L106.473 448.231L105.733 446.81L94.8784 450.828L95.1871 452.336L94.2995 452.608L92.518 447.853L93.4056 447.581L94.1454 449.002L98.9007 447.22L97.8268 444.386C96.6286 444.676 95.3863 444.751 94.341 444.47ZM93.2024 442.638C94.4378 442.969 96.0161 442.78 97.9627 441.978C99.6683 441.314 100.899 440.524 101.68 439.511C102.46 438.497 102.645 437.427 102.235 436.298C101.824 435.169 100.976 434.535 99.8352 434.229C98.6948 433.924 97.0911 434.207 95.1699 434.914C93.4643 435.578 92.2339 436.368 91.4786 437.287C90.6979 438.3 90.5383 439.275 90.9489 440.404C91.2389 441.602 92.062 442.332 93.2024 442.638Z" fill="black"/>
<path d="M92.5473 423.415C93.0361 422.731 93.6709 421.883 94.5467 420.895C95.1306 420.237 95.5684 419.743 95.8858 419.319C96.1778 418.989 96.2541 418.704 96.3051 418.514L96.2932 417.798L97.1808 417.527L97.907 419.758C98.0461 419.999 97.8238 420.449 97.5064 420.873C97.1635 421.393 96.5797 422.051 95.7548 422.849C94.8791 423.836 94.1747 424.564 93.7114 425.153C93.248 425.742 93.1207 426.217 93.2344 426.553L93.5499 427.656L98.6599 426.072L98.4021 424.373L99.2897 424.101L100.83 428.996L99.9427 429.267L99.2979 427.872L88.1903 431.313L88.404 432.796L87.5164 433.068L86.0454 428.294L86.933 428.022L87.5778 429.417L92.6878 427.833L92.189 426.273L85.8982 424.282L86.1814 425.885L85.2938 426.157L83.9366 421.719L84.8241 421.448L85.4944 422.748L91.9244 424.98C91.8107 424.644 92.084 424.004 92.5473 423.415Z" fill="black"/>
<path d="M95.5366 414.539C95.1614 415.559 94.5267 416.408 93.6322 417.085C92.7378 417.762 91.5583 418.363 90.2397 418.722C88.826 419.056 87.5837 419.131 86.4179 418.92C85.252 418.71 84.283 418.145 83.46 417.415C82.637 416.685 82.0804 415.721 81.7903 414.523C81.2729 412.653 81.4902 411.081 82.4679 409.714C83.42 408.441 84.8915 407.511 86.9772 406.949C88.3909 406.615 89.7282 406.566 90.8941 406.777C92.0599 406.987 93.1239 407.578 93.947 408.308C94.77 409.037 95.3266 410.001 95.6167 411.2C95.9067 412.398 95.9117 413.52 95.5366 414.539ZM84.8805 416.675C86.0905 417.101 87.6433 417.008 89.6086 416.516C91.4533 416.094 92.7788 415.328 93.6291 414.436C94.4794 413.543 94.785 412.403 94.4694 411.3C94.1793 410.102 93.3563 409.372 92.1463 408.946C90.9364 408.52 89.2885 408.587 87.3232 409.079C85.4785 409.502 84.153 410.267 83.3027 411.16C82.4524 412.052 82.1723 413.097 82.4624 414.296C82.968 415.45 83.7656 416.275 84.8805 416.675Z" fill="black"/>
<path d="M80.6864 404.958L80.7796 406.511L79.9175 406.688L79.3627 404.196C79.2745 403.765 79.1168 403.214 78.959 402.662C78.8012 402.11 78.6179 401.654 78.5993 401.343C78.2465 399.619 78.2669 398.402 78.5911 397.573C78.9154 396.743 79.6638 396.23 80.6464 395.984C81.5086 395.808 82.2943 395.917 83.0291 396.215C83.7384 396.609 84.3018 397.167 84.6938 397.985C84.4037 396.787 84.4428 395.881 84.862 395.077C85.2813 394.272 86.0297 393.76 86.9869 393.609C88.1851 393.319 89.3509 393.529 90.269 394.285C91.2125 394.945 91.9523 396.365 92.3492 398.305C92.4374 398.736 92.5257 399.167 92.5188 399.573C92.6698 400.53 92.8276 401.082 92.8717 401.297L93.4519 403.693L92.5897 403.87L92.0655 402.405L80.6864 404.958ZM84.9311 400.901L84.6851 399.918C84.5087 399.056 84.1608 398.454 83.5465 398.085C83.0273 397.743 82.2416 397.634 81.354 397.905C80.4918 398.082 79.8893 398.43 79.6415 398.974C79.3937 399.519 79.285 400.305 79.5055 401.383C79.5937 401.814 79.682 402.245 79.8652 402.701L79.9789 403.037L85.0566 401.953C85.1075 401.763 84.9939 401.427 84.9311 400.901ZM91.3666 398.551C91.0765 397.353 90.6846 396.535 90.0007 396.046C89.4118 395.583 88.6261 395.474 87.6435 395.72C86.6863 395.871 86.0584 396.314 85.8105 396.859C85.4677 397.378 85.4286 398.284 85.6491 399.362C85.9392 400.56 86.1156 401.422 86.2293 401.758L91.6431 400.56C91.7194 400.275 91.5871 399.629 91.3666 398.551Z" fill="black"/>
<path d="M74.2247 376.235L75.1818 376.084L75.6806 377.643L87.1665 375.832L87.1243 374.089L88.0814 373.938L88.9244 379.155L87.9673 379.306L87.5635 377.772L76.0776 379.583L77.0274 385.542L88.6084 383.756L88.5661 382.013L89.5233 381.862L90.2712 387.053L89.3141 387.204L88.8848 385.765L77.3989 387.576L77.3716 389.199L76.4145 389.35L74.2247 376.235Z" fill="black"/>
<path d="M86.8565 370.147C86.4118 371.046 85.587 371.844 84.623 372.4C83.659 372.957 82.4354 373.342 80.9776 373.461C79.5198 373.579 78.2335 373.438 77.1185 373.038C76.0036 372.637 75.0601 371.977 74.383 371.082C73.706 370.188 73.2699 369.154 73.1699 368.007C72.963 366.118 73.3959 364.503 74.5126 363.376C75.6294 362.249 77.24 361.56 79.4394 361.335C80.8972 361.216 82.1836 361.357 83.2985 361.758C84.4135 362.158 85.357 362.819 86.1291 363.739C86.8061 364.633 87.2422 365.667 87.3422 366.814C87.4863 368.177 87.3012 369.247 86.8565 370.147ZM76.0122 370.704C77.1713 371.32 78.6732 371.417 80.7521 371.261C82.641 371.054 83.9851 370.6 85.0254 369.758C86.0403 369.011 86.5105 368.017 86.3409 366.749C86.2409 365.602 85.5638 364.708 84.4048 364.091C83.2458 363.475 81.6488 363.353 79.6649 363.534C77.7761 363.741 76.3369 364.17 75.3916 365.038C74.3767 365.784 74.0015 366.804 74.1711 368.072C74.2457 369.314 74.9227 370.209 76.0122 370.704Z" fill="black"/>
<path d="M80.9485 355.322C82.6405 355.47 83.9964 355.732 84.8958 356.176C85.3455 356.399 85.6747 356.691 85.9089 356.957C86.1176 357.319 86.2313 357.655 86.3195 358.086C86.3568 358.707 86.3499 359.113 86.2735 359.398L84.7903 359.611C84.7716 359.301 84.7785 358.895 84.7667 358.179C84.7225 357.963 84.6784 357.748 84.5138 357.602C84.3492 357.456 84.1846 357.31 83.925 357.139C82.4113 356.326 79.3379 356.011 74.7745 356.316L73.3167 356.435L73.2571 358.558L72.3254 358.614L71.6475 347.839L72.5792 347.783L72.932 349.508L84.5434 348.748L84.6217 346.936L85.5534 346.88L85.9585 352.591L85.0268 352.647L84.7249 350.732L73.1389 351.396L73.3371 355.218L74.985 355.151C77.3236 355.166 79.2565 355.175 80.9485 355.322Z" fill="black"/>
<path d="M72.7798 344.374L72.5624 345.945L71.6307 346.001L71.433 336.476L74.3741 336.143L74.4045 337.17L72.6293 337.713L72.5984 342.39L77.8271 342.263L77.7357 339.183L76.1642 338.966L76.1337 337.939L80.4307 337.868L80.4612 338.895L78.8574 339.178L78.8283 342.328L84.3676 342.182L84.0507 336.903L81.6562 335.955L81.9618 334.815L85.1997 335.275L85.3838 345.612L84.4521 345.668L84.2639 344.09L72.7798 344.374Z" fill="black"/>
<path d="M72.5639 328.834L72.6298 332.009L76.5075 332.743L76.4871 333.959L71.5062 333.541L71.7736 321.9L76.7868 321.817L76.7663 323.034L72.8426 323.612L72.693 326.831L84.4554 327.029L84.6678 324.336L85.574 324.375L85.4071 331.46L84.5008 331.421L84.3517 328.937L72.5639 328.834Z" fill="black"/>
<path d="M79.9898 314.425L79.9507 315.331C80.1594 315.692 80.4886 315.984 81.1029 316.353C81.6222 316.695 82.3315 317.089 83.2309 317.534C84.1303 317.979 84.7447 318.347 85.1944 318.569C85.6441 318.792 85.8782 319.058 85.8273 319.248L85.6659 321.751L84.7596 321.712L84.6528 320.971C84.6087 320.755 84.4441 320.609 84.2099 320.343C83.8552 320.146 83.431 319.828 82.7471 319.339C81.9427 318.92 81.3539 318.457 80.8346 318.114C80.3154 317.771 80.0116 317.384 79.8029 317.023C79.4787 317.853 79.0153 318.441 78.2669 318.954C77.5439 319.371 76.7768 319.573 75.7755 319.509C74.2736 319.412 73.2792 318.942 72.7227 317.978C72.1661 317.014 71.9965 315.746 72.1188 314.149C72.1256 313.743 72.2275 313.363 72.2852 312.768C72.343 312.172 72.4703 311.697 72.4517 311.386L72.6641 308.693L73.5703 308.732L73.6635 310.285L85.2731 311.053L85.5413 309.291L86.4476 309.331L86.0924 314.837L85.1862 314.798L85.1694 312.96L80.1631 312.638L79.9898 314.425ZM73.2169 312.712C73.0641 313.282 73.0319 313.782 73.025 314.188C72.9605 315.189 73.0673 315.931 73.5357 316.464C74.004 316.997 74.6438 317.27 75.7401 317.36C76.7413 317.425 77.5085 317.223 78.1364 316.78C78.7644 316.337 78.9681 315.577 79.1277 314.601C79.1922 313.6 79.25 313.004 79.1618 312.573L73.4648 312.167L73.2169 312.712Z" fill="black"/>
<path d="M74.1616 301.964L73.917 305.158L77.7183 306.177L77.6028 307.368L72.6288 306.545L73.8975 294.967L78.9038 295.29L78.7883 296.481L74.8715 296.654L74.4113 299.892L86.0836 301.186L86.5811 298.57L87.4618 298.704L86.6738 305.826L85.793 305.692L85.834 303.259L74.1616 301.964Z" fill="black"/>
<path d="M88.2858 288.026C87.556 288.849 86.5666 289.5 85.4634 289.816C84.3603 290.131 83.023 290.181 81.6671 289.919C80.3112 289.658 79.1012 289.232 78.1831 288.476C77.2651 287.721 76.493 286.801 76.0824 285.673C75.6718 284.544 75.5718 283.397 75.8078 282.136C75.9674 281.16 76.273 280.02 76.7941 278.835L77.0419 278.29L80.324 278.966L80.088 280.227L77.6289 280.281C77.483 280.446 77.3115 280.705 77.0892 281.155C76.8923 281.51 76.7395 282.08 76.6817 282.676C76.5731 283.461 76.6799 284.203 77.0023 284.9C77.3247 285.598 77.8881 286.156 78.762 286.696C79.5409 287.21 80.5863 287.49 81.8472 287.726C83.0131 287.937 84.0398 287.907 85.092 287.781C86.0491 287.63 86.9622 287.264 87.6156 286.726C88.269 286.188 88.6628 285.478 88.8224 284.503C88.9056 283.812 88.9379 283.311 88.9193 283.001C88.9006 282.69 88.7869 282.354 88.5782 281.993L86.9254 280.939L87.231 279.798L89.746 280.676C89.6696 280.961 89.7832 281.297 89.846 281.823C89.9342 282.254 89.9019 282.755 89.9901 283.186C90.0783 283.617 89.951 284.092 89.8678 284.783C89.5367 286.018 89.0411 287.108 88.2858 288.026Z" fill="black"/>
<path d="M78.0522 270.718L78.9329 270.852L78.7597 272.639L87.9152 274.583L85.9909 272.642L80.6372 266.012L80.162 265.885L79.6341 267.475L78.7533 267.341L79.7924 262.323L80.6731 262.457L80.5763 263.959L91.943 266.394L92.4455 264.898L93.3008 265.128L92.2363 270.241L91.381 270.012L91.5288 268.32L82.1832 266.325L84.038 268.146L89.4612 274.896L90.1264 275.074L90.6798 273.389L91.5606 273.523L90.4961 278.636L89.6153 278.502L89.7377 276.905L78.3709 274.47L77.8939 275.87L77.0131 275.736L78.0522 270.718Z" fill="black"/>
<path d="M82.6327 250.963L87.4353 252.046L87.1042 253.281L83.3402 252.884L82.1757 256.85L93.6306 259.716L94.661 256.63L95.5163 256.86L93.727 263.918L92.8717 263.688L93.2164 261.642L81.9515 258.827L81.2521 260.677L80.3968 260.448L82.6327 250.963Z" fill="black"/>
<path d="M84.6132 248.132L83.9462 249.482L83.0908 249.252L84.6051 244.362L85.4604 244.591L85.243 246.162L90.0388 247.651L91.935 241.335L87.1392 239.846L86.4721 241.195L85.6168 240.966L87.1055 236.17L87.9609 236.399L87.769 237.876L98.8811 241.261L99.4531 239.886L100.308 240.115L98.8197 244.911L97.9644 244.682L98.2768 243.136L93.1008 241.545L91.2047 247.861L96.3806 249.452L96.9781 247.982L97.8334 248.212L96.3192 253.103L95.4639 252.873L95.7508 251.422L84.6132 248.132Z" fill="black"/>
<path d="M89.1478 229.689L89.8726 227.744L103.524 227.735L104.114 226.671L104.944 226.996L103.291 231.645L102.461 231.321L102.774 229.775L99.8393 229.702L98.0586 234.827L100.344 236.56L101.037 235.116L101.867 235.44L100.436 239.64L99.606 239.316L99.8165 238.15L89.1478 229.689ZM92.418 229.649L90.726 229.501L92.1888 230.504L97.1847 234.287L98.7871 229.827L92.418 229.649Z" fill="black"/>
<path d="M102.043 220.718C103.531 221.626 104.639 222.432 105.247 223.206C105.551 223.593 105.734 224.049 105.847 224.385C105.936 224.817 105.834 225.197 105.732 225.577C105.484 226.122 105.287 226.476 105.116 226.736L103.716 226.259C103.887 225.999 104.015 225.524 104.262 224.979C104.313 224.789 104.39 224.504 104.32 224.384C104.276 224.168 104.137 223.927 103.998 223.686C102.947 222.284 100.326 220.665 96.0813 219.018L94.7067 218.446L93.6968 220.315L92.867 219.991L96.878 209.963L97.7078 210.287L97.2495 211.998L108.012 216.308L108.85 214.699L109.68 215.023L107.538 220.357L106.708 220.033L107.218 218.132L96.4551 213.822L95.0123 217.306L96.5769 217.929C98.7304 219.015 100.555 219.81 102.043 220.718Z" fill="black"/>
<path d="M105.053 204.922C105.72 203.572 106.475 202.654 107.509 202.218C108.543 201.782 109.544 201.847 110.728 202.368C111.982 203.01 112.875 203.86 113.165 205.058C113.481 206.161 113.34 207.448 112.673 208.797C112.622 208.987 112.476 209.151 112.425 209.341C112.279 209.506 112.228 209.696 112.056 209.956C111.688 210.57 111.44 211.115 111.192 211.659L110.176 213.933L109.371 213.514L109.874 212.019L99.2897 207.044L98.4325 208.342L97.6282 207.923L99.8331 203.115L100.637 203.535L100.059 205.315L103.941 207.17L105.053 204.922ZM105.056 191.987L105.86 192.406L105.307 194.091L115.796 199.04L116.704 197.552L117.508 197.971L115.158 202.944L114.353 202.524L114.907 200.839L104.417 195.89L103.509 197.378L102.705 196.959L105.056 191.987ZM111.227 209.631C111.373 209.467 111.474 209.087 111.671 208.732C112.116 207.833 112.155 206.926 111.858 206.134C111.561 205.341 110.903 204.757 109.908 204.287C109.009 203.843 108.103 203.803 107.431 204.031C106.733 204.353 106.175 204.917 105.73 205.816L104.961 207.545L110.668 210.195C110.909 210.056 111.081 209.796 111.227 209.631Z" fill="black"/>
<path d="M110.116 184.888L109.189 186.066L108.384 185.647L110.893 181.226L111.697 181.645L111.1 183.115L115.546 185.528L118.722 179.759L114.276 177.345L113.349 178.523L112.545 178.104L114.933 173.752L115.737 174.172L115.26 175.572L125.451 181.256L126.377 180.078L127.182 180.498L124.768 184.944L123.964 184.525L124.561 183.055L119.76 180.444L116.585 186.214L121.385 188.825L122.363 187.457L123.167 187.876L120.633 192.392L119.829 191.973L120.401 190.598L110.116 184.888Z" fill="black"/>
<path d="M118.54 167.894L119.619 166.147L132.981 169.116L133.737 168.198L134.516 168.712L131.868 172.892L131.089 172.377L131.781 170.933L128.93 170.169L126.06 174.799L127.908 177.025L128.955 175.778L129.734 176.292L127.404 180.048L126.625 179.534L127.121 178.444L118.54 167.894ZM121.632 168.519L120.016 168.086L121.212 169.324L125.332 174.094L127.834 170.079L121.632 168.519Z" fill="black"/>
<path d="M128.105 155.383L126.766 156.959L125.987 156.445L128.895 152.437L137.225 155.178L139.525 156.1L137.886 154.235L132.539 147.2L135.446 143.192L136.225 143.706L135.241 145.479L145.577 150.999L146.719 149.777L147.498 150.292L144.273 154.724L143.495 154.21L144.308 152.696L136.98 148.492L133.788 146.72L135.541 148.921L141.678 157.186L140.993 158.225L131.946 155.495L128.386 154.337L131.114 156.698L137.49 162.175L138.683 160.763L139.462 161.278L136.675 165.216L135.896 164.702L136.683 163.283L128.105 155.383Z" fill="black"/>
<path d="M139.813 137.538L141.057 135.936L154.012 140.426L154.837 139.628L155.59 140.237L152.518 144.1L151.765 143.49L152.622 142.192L149.943 141.168L146.553 145.455L148.16 147.821L149.277 146.694L150.03 147.303L147.276 150.741L146.522 150.132L147.113 149.068L139.813 137.538ZM142.829 138.447L141.264 137.825L142.314 139.226L145.806 144.44L148.733 140.742L142.829 138.447Z" fill="black"/>
<path d="M147.357 130.29L146.196 131.201L145.443 130.592L147.074 128.686C147.366 128.357 147.658 128.028 147.855 127.673C148.293 127.179 148.636 126.66 149.073 126.166C150.241 124.85 151.376 124.033 152.334 123.882C153.291 123.731 154.311 124.107 155.298 124.982C156.052 125.592 156.564 126.34 156.836 127.228C157.107 128.115 157.093 128.926 156.864 129.782C156.635 130.637 156.19 131.537 155.486 132.264C155.22 132.499 155.023 132.853 154.756 133.088C154.49 133.322 154.344 133.486 154.318 133.581L157.471 136.26L159.267 134.5L159.925 135.084L155.933 139.718L155.275 139.134L156.132 137.836L147.357 130.29ZM154.828 131.681C155.437 130.927 155.761 130.097 155.68 129.261C155.598 128.424 155.111 127.581 154.054 126.584C153.231 125.854 152.496 125.556 151.755 125.663C151.013 125.769 150.385 126.212 149.535 127.105C149.243 127.434 149.046 127.789 148.754 128.118C148.583 128.378 148.462 128.447 148.437 128.542L153.495 132.852C153.831 132.738 154.244 132.339 154.828 131.681Z" fill="black"/>
<path d="M165.194 128.347C164.091 128.662 162.994 128.572 161.854 128.267C160.739 127.866 159.675 127.275 158.618 126.279C157.656 125.308 156.909 124.293 156.524 123.07C156.113 121.941 156.134 120.724 156.344 119.558C156.65 118.418 157.145 117.329 158.091 116.461C158.795 115.733 159.595 115.031 160.825 114.24L161.332 113.867L163.63 116.316L162.78 117.209L160.677 115.932C160.462 115.976 160.126 116.09 159.764 116.299C159.403 116.507 158.99 116.906 158.578 117.305C158.019 117.868 157.721 118.603 157.637 119.294C157.529 120.08 157.731 120.847 158.097 121.76C158.489 122.578 159.166 123.472 160.059 124.322C160.856 125.147 161.825 125.712 162.725 126.157C163.624 126.602 164.505 126.736 165.342 126.655C166.178 126.573 166.901 126.156 167.58 125.523C168.018 125.029 168.335 124.605 168.507 124.345C168.678 124.086 168.78 123.705 168.761 123.395L167.933 121.543L168.853 120.771L170.511 122.947C170.365 123.112 170.168 123.466 169.92 124.011C169.698 124.461 169.501 124.815 169.304 125.17C169.107 125.525 168.79 125.949 168.352 126.443C167.286 127.379 166.202 128.006 165.194 128.347Z" fill="black"/>
<path d="M176.263 98.8203L176.896 99.4992L175.702 100.911L181.981 107.89L181.598 105.139L181.215 96.6841L180.911 96.2972L179.535 97.2525L178.902 96.5736L182.778 93.1306L183.411 93.8095L182.484 94.9872L190.238 103.685L191.494 102.8L192.126 103.478L188.25 106.921L187.617 106.243L188.759 105.021L182.411 97.9214L182.845 100.482L183.177 109.127L183.646 109.66L185.048 108.61L185.681 109.289L181.779 112.827L181.146 112.148L182.167 110.996L174.414 102.297L173.184 103.088L172.551 102.409L176.263 98.8203Z" fill="black"/>
<path d="M185.944 90.8213C186.261 90.397 186.578 89.9728 186.87 89.6436C187.162 89.3144 187.429 89.0802 187.695 88.846C188.881 87.8397 190.036 87.3341 190.993 87.1832C191.95 87.0322 192.754 87.4515 193.457 88.2508C194.064 89.0247 194.361 89.8173 194.227 90.6981C194.093 91.5788 193.794 92.3136 193.185 93.0671C194.079 92.39 194.992 92.0236 195.873 92.1577C196.779 92.1968 197.489 92.5906 198.096 93.3645C198.938 94.4049 199.253 95.508 199.068 96.5788C198.883 97.6497 198.077 98.7578 196.65 99.9032C196.117 100.372 195.514 100.719 195.032 100.998C194.55 101.276 194.094 101.459 193.758 101.573C193.422 101.687 193.206 101.731 193.181 101.826L191.365 99.0983L192.139 98.4908L194.07 100.027C194.717 99.8945 195.535 99.5026 196.334 98.8001C196.987 98.2621 197.356 97.6478 197.319 97.0267C197.307 96.3105 197.079 95.6385 196.377 94.8391C195.934 94.2111 195.32 93.8428 194.629 93.7596C193.938 93.6764 193.146 93.9733 192.251 94.6504L191.211 95.492L190.508 94.6926L191.308 93.9901C191.695 93.6864 192.012 93.2622 192.234 92.8125C192.457 92.3627 192.584 91.8876 192.521 91.3615C192.459 90.8354 192.18 90.3534 191.807 89.8459C191.269 89.1925 190.75 88.8497 190.129 88.887C189.508 88.9242 188.931 89.177 188.303 89.6199C187.89 90.0187 187.598 90.3479 187.306 90.6771C187.014 91.0063 187.033 91.3169 187.077 91.5324L187.887 93.0734L186.967 93.8455L184.998 91.6884C185.239 91.5492 185.531 91.22 185.944 90.8213Z" fill="black"/>
<path d="M199.131 81.5207L197.71 82.2605L197.198 81.5121L199.227 80.0188C199.589 79.8101 200.001 79.4113 200.509 79.038C200.921 78.6393 201.308 78.3355 201.549 78.1964C202.951 77.146 204.105 76.6404 205.011 76.6795C205.918 76.7186 206.722 77.1379 207.329 77.9118C207.842 78.6602 208.044 79.4273 208.03 80.2385C208.016 81.0497 207.623 81.7591 207.039 82.4175C207.959 81.6454 208.941 81.3994 209.848 81.4385C210.754 81.4776 211.533 81.9919 212.045 82.7403C212.792 83.7552 213.012 84.8329 212.802 85.9988C212.591 87.1646 211.569 88.3169 209.901 89.6014C209.514 89.9051 209.153 90.1139 208.791 90.3226C207.948 90.8095 207.535 91.2083 207.32 91.2524L205.29 92.7457L204.777 91.9972L205.869 90.9655L199.131 81.5207ZM204.534 83.7834L205.403 83.2014C206.151 82.6889 206.52 82.0746 206.577 81.4789C206.635 80.8833 206.433 80.1162 205.921 79.3677C205.408 78.6193 204.889 78.2764 204.293 78.2187C203.698 78.1609 202.905 78.4578 202.131 79.0653C201.744 79.3691 201.383 79.5778 201.091 79.907L200.824 80.1412L203.88 84.3213C203.785 84.2958 204.147 84.0871 204.534 83.7834ZM209.319 88.7325C210.334 87.9858 210.943 87.2324 211.052 86.4466C211.161 85.6609 210.959 84.8938 210.446 84.1454C209.839 83.3715 209.25 82.9081 208.654 82.8504C207.964 82.7671 207.266 83.0895 206.372 83.7666C205.357 84.5132 204.729 84.9561 204.462 85.1902L207.727 89.7319C207.943 89.6878 208.45 89.3145 209.319 88.7325Z" fill="black"/>
<path d="M211.691 71.1356L213.429 69.9716L224.365 78.1982L225.424 77.6671L225.936 78.4156L221.832 81.1865L221.32 80.4381L222.506 79.4318L220.246 77.6039L215.66 80.6531L216.449 83.411L217.869 82.6711L218.382 83.4196L214.665 85.8868L214.153 85.1384L214.978 84.3408L211.691 71.1356ZM214.357 72.9704L213.015 71.8977L213.583 73.5779L215.319 79.6451L219.277 77.0387L214.357 72.9704Z" fill="black"/>
<path d="M228.265 76.1876C227.143 76.1926 226.123 75.8174 225.059 75.2267C224.115 74.5665 223.248 73.6212 222.458 72.3907C221.762 71.1857 221.377 69.9621 221.277 68.8149C221.177 67.6677 221.508 66.4322 222.073 65.4632C222.664 64.3992 223.489 63.6017 224.598 62.8805C225.442 62.3935 226.475 61.9575 227.82 61.5028L228.397 61.25L229.946 64.2115L228.861 64.8376L227.197 63.0674C227.007 63.0165 226.671 63.1302 226.239 63.2184C225.808 63.3066 225.326 63.5849 224.844 63.8632C224.121 64.2806 223.658 64.8694 223.385 65.5092C223.086 66.244 222.977 67.0297 223.128 67.9869C223.279 68.9441 223.715 69.9776 224.367 70.967C225.019 71.9565 225.696 72.8509 226.449 73.4602C227.202 74.0695 228.007 74.4888 228.862 74.7179C229.717 74.9471 230.485 74.7452 231.328 74.2583C231.931 73.9104 232.318 73.6067 232.489 73.347C232.755 73.1129 232.952 72.7582 233.029 72.4731L232.752 70.4637L233.811 69.9326L234.772 72.4308C234.531 72.5699 234.264 72.8041 233.947 73.2284C233.655 73.5576 233.363 73.8868 232.976 74.1905C232.684 74.5197 232.202 74.798 231.72 75.0763C230.585 75.8925 229.386 76.1826 228.265 76.1876Z" fill="black"/>
<path d="M238.014 58.4286C238.104 57.3323 238.384 56.2869 238.924 55.413C239.464 54.539 240.143 53.9061 241.107 53.3495C242.191 52.7234 243.269 52.5028 244.27 52.5674C245.271 52.632 246.291 53.0071 247.114 53.737C247.937 54.4668 248.709 55.3866 249.43 56.4966C250.196 57.8221 250.555 59.1407 250.63 60.383C250.704 61.6252 250.519 62.6961 249.954 63.6651C249.389 64.634 248.685 65.362 247.721 65.9186C246.636 66.5447 245.559 66.7652 244.462 66.6752C243.461 66.6106 242.441 66.2355 241.593 65.6007C240.744 64.9659 239.877 64.0206 239.276 62.8411L236.651 64.2765L239.244 69.0455L240.734 68.4262L241.126 69.2443L236.598 71.6978L236.206 70.8798L237.462 69.9941L231.954 59.7585L230.489 60.2828L230.002 59.4393L234.41 57.0553L234.897 57.8988L233.641 58.7846L236.025 63.1921L238.745 61.782C238.214 60.723 237.994 59.6454 238.014 58.4286ZM239.777 57.1695C239.636 58.4559 240.04 59.99 241.084 61.7975C241.988 63.364 242.899 64.5249 244.058 65.141C245.217 65.7571 246.219 65.8217 247.398 65.221C248.457 64.69 249.022 63.721 249.043 62.5042C249.063 61.2874 248.66 59.7532 247.711 57.9712C246.807 56.4047 245.896 55.2438 244.831 54.6532C243.767 54.0625 242.671 53.9725 241.612 54.5036C240.553 55.0347 239.918 55.8831 239.777 57.1695Z" fill="black"/>
<path d="M258.737 53.694C259.447 54.0878 260.321 54.6275 261.48 55.2437C262.259 55.7579 262.778 56.1008 263.228 56.3231C263.677 56.5455 263.867 56.5964 264.083 56.5523L264.825 56.4455L265.216 57.2635L263.124 58.2306C262.883 58.3698 262.503 58.2679 261.958 58.0201C261.413 57.7723 260.729 57.2835 259.786 56.6232C258.773 55.8425 257.899 55.3027 257.285 54.9344C256.67 54.5661 256.17 54.5338 255.834 54.6475L254.775 55.1786L257.057 59.9662L258.616 59.4674L259.008 60.2854L254.341 62.498L253.949 61.68L255.275 60.9147L250.344 50.4264L248.905 50.8556L248.513 50.0376L253.059 47.8946L253.451 48.7126L252.1 49.5729L254.357 54.4556L255.778 53.7158L256.914 47.1958L255.354 47.6946L254.962 46.8765L259.147 44.9422L259.539 45.7603L258.309 46.551L256.932 53.2102C257.337 53.217 258.003 53.3952 258.737 53.694Z" fill="black"/>
<path d="M267.944 55.4478C266.873 55.2627 265.999 54.723 265.201 53.8981C264.404 53.0733 263.657 52.0584 263.107 50.6888C262.558 49.3192 262.268 48.1211 262.383 46.9297C262.499 45.7384 262.779 44.693 263.439 43.7495C264.099 42.806 264.994 42.129 266.027 41.6929C267.853 40.9599 269.381 40.9618 270.825 41.6543C272.269 42.3468 273.414 43.7741 274.217 45.7208C274.767 47.0903 275.031 48.3835 274.916 49.5748C274.8 50.7662 274.495 51.9066 273.834 52.8501C273.174 53.7936 272.28 54.4707 271.246 54.9067C270.067 55.5074 269.015 55.6329 267.944 55.4478ZM264.343 45.316C264.107 46.5769 264.416 48.0856 265.124 50.0068C265.882 51.7378 266.768 52.9938 267.806 53.6795C268.82 54.4602 269.916 54.5502 271.07 54.0446C272.198 53.634 272.859 52.6905 273.095 51.4296C273.331 50.1687 273.047 48.5649 272.219 46.7134C271.461 44.9823 270.575 43.7264 269.537 43.0407C268.498 42.355 267.427 42.1699 266.273 42.6755C265.214 43.2066 264.579 44.0551 264.343 45.316Z" fill="black"/>
<path d="M275.302 39.3906L273.793 39.6993L273.522 38.8117L275.9 37.921C276.331 37.8328 276.813 37.5545 277.39 37.3017C277.967 37.0489 278.328 36.8402 278.639 36.8215C280.224 36.2277 281.492 36.0581 282.347 36.2873C283.202 36.5164 283.861 37.1003 284.202 38.1084C284.499 38.9009 284.58 39.7376 284.281 40.4724C283.982 41.2072 283.494 41.8911 282.771 42.3085C283.899 41.8979 284.831 41.842 285.686 42.0712C286.541 42.3003 287.174 42.9792 287.515 43.9873C287.926 45.1159 287.906 46.3327 287.34 47.3017C286.75 48.3657 285.494 49.2514 283.573 49.959C283.116 50.1422 282.78 50.2559 282.349 50.3441C281.461 50.6155 280.884 50.8683 280.669 50.9125L278.291 51.8032L277.994 51.0107L279.415 50.2709L275.302 39.3906ZM279.918 43.0719L280.926 42.7309C281.718 42.434 282.251 41.9656 282.525 41.3259C282.798 40.6861 282.786 39.9699 282.394 39.1519C282.097 38.3594 281.629 37.8264 281.084 37.5786C280.539 37.3308 279.703 37.4122 278.695 37.7532C278.238 37.9365 277.877 38.1452 277.42 38.3284L277.059 38.5371L278.91 43.413C279.03 43.3434 279.366 43.2297 279.918 43.0719ZM283.086 49.1155C284.214 48.7049 284.988 48.0974 285.382 47.388C285.776 46.6787 285.764 45.9625 285.423 44.9545C285.056 44.0414 284.588 43.5085 284.043 43.2607C283.404 42.9874 282.567 43.0688 281.533 43.5048C280.31 43.8899 279.612 44.2123 279.276 44.326L281.241 49.5379C281.501 49.7093 282.173 49.482 283.086 49.1155Z" fill="black"/>
<path d="M302.826 29.0426L303.097 29.9302L301.677 30.67L305.023 41.7522L306.747 41.3993L307.018 42.2869L302.029 43.802L301.757 42.9144L303.152 42.2696L299.737 31.067L293.981 32.7839L297.396 43.9865L299.12 43.6337L299.391 44.5213L294.402 46.0363L294.13 45.1487L295.526 44.504L292.18 33.4218L290.576 33.7051L290.305 32.8175L302.826 29.0426Z" fill="black"/>
<path d="M310.626 40.6055C309.606 40.2303 308.758 39.5955 308.081 38.7011C307.404 37.8067 306.898 36.6527 306.564 35.239C306.23 33.8253 306.155 32.583 306.391 31.3221C306.602 30.1563 307.167 29.1873 307.897 28.3643C308.627 27.5413 309.591 26.9847 310.789 26.6946C312.659 26.1772 314.23 26.3945 315.598 27.3722C316.871 28.3243 317.801 29.7958 318.337 31.9765C318.671 33.3902 318.72 34.7275 318.51 35.8934C318.274 37.1543 317.708 38.1233 316.884 38.9208C316.059 39.7184 315.095 40.2749 313.992 40.5905C312.673 40.9501 311.646 40.9806 310.626 40.6055ZM308.491 29.9494C308.065 31.1594 308.158 32.7122 308.65 34.6774C309.072 36.5222 309.837 37.8477 310.73 38.698C311.623 39.5483 312.763 39.8539 313.866 39.5383C315.064 39.2482 315.769 38.5202 316.22 37.2152C316.646 36.0052 316.578 34.3574 316.087 32.3921C315.664 30.5474 314.899 29.2219 314.006 28.3716C313.114 27.5213 312.068 27.2412 310.87 27.5313C309.716 28.0369 308.891 28.8344 308.491 29.9494Z" fill="black"/>
<path d="M324.553 32.7255C324.69 34.4938 324.55 35.7802 324.174 36.8001C324.047 37.2753 323.73 37.6995 323.463 37.9337C323.197 38.1679 322.835 38.3766 322.404 38.4648C321.853 38.6226 321.352 38.5903 321.136 38.6344L320.707 37.1952C321.018 37.1766 321.449 37.0884 322.095 36.9561C322.311 36.912 322.527 36.8678 322.673 36.7032C322.818 36.5386 322.964 36.374 323.041 36.0889C323.689 34.4293 323.477 31.4186 322.551 26.8925L322.217 25.4788L320.018 25.7043L319.841 24.8422L330.402 22.681L330.579 23.5432L328.898 24.1115L331.236 35.5347L333.125 35.3278L333.301 36.1899L327.697 37.3367L327.521 36.4746L329.417 35.8621L327.079 24.4389L323.415 25.1887L323.793 26.8179C324.114 29.0428 324.39 31.0522 324.553 32.7255Z" fill="black"/>
<path d="M334.166 23.0786L332.639 23.0767L332.488 22.1196L341.869 20.5591L342.633 23.4119L341.581 23.5374L340.727 21.7809L336.182 22.3965L337.025 27.6134L340.138 27.0214L340.14 25.494L341.192 25.3685L341.884 29.6282L340.832 29.7537L340.333 28.1941L337.246 28.691L338.107 34.2185L343.28 33.1599L343.847 30.6636L345.013 30.8741L345.054 34.1444L334.835 35.7863L334.659 34.9242L336.193 34.5204L334.166 23.0786Z" fill="black"/>
<path d="M349.576 20.6887L346.394 21.1602L346.256 25.0957L344.988 25.2653L344.69 20.2962L356.264 18.9158L357.089 23.8221L355.941 23.9221L354.837 20.0612L351.611 20.3172L353.061 32.0118L355.735 31.9136L355.791 32.8453L348.736 33.7051L348.681 32.7734L351.051 32.2883L349.576 20.6887Z" fill="black"/>
<path d="M364.856 26.0051L363.924 26.061C363.658 26.2952 363.34 26.7194 363.092 27.2642C362.819 27.904 362.52 28.6388 362.266 29.5891C361.916 30.514 361.738 31.1792 361.515 31.6289C361.293 32.0786 361.122 32.3382 360.906 32.3824L358.396 32.6265L358.34 31.6948L359.012 31.4675C359.228 31.4234 359.374 31.2588 359.571 30.9041C359.767 30.5494 360.015 30.0047 360.314 29.2699C360.638 28.44 361.032 27.7307 361.28 27.186C361.623 26.6667 361.94 26.2425 362.302 26.0337C361.421 25.8996 360.711 25.5058 360.174 24.8524C359.636 24.199 359.339 23.4064 359.283 22.4747C359.164 21.0169 359.565 19.902 360.339 19.2945C361.233 18.6175 362.457 18.2323 364.105 18.1646C364.415 18.1459 364.941 18.0832 365.537 18.1409C366.158 18.1037 366.564 18.1105 366.874 18.0918L369.574 17.8986L369.63 18.8303L368.121 19.139L369.027 30.5859L370.744 30.6386L370.8 31.5703L365.279 32.0263L365.224 31.0947L367.043 30.7673L366.65 25.7728L364.856 26.0051ZM365.618 18.9776C365.023 18.9199 364.592 19.0081 364.091 18.9758C363.159 19.0317 362.367 19.3286 361.954 19.7274C361.421 20.1957 361.218 20.956 361.343 22.0082C361.374 23.0349 361.791 23.7579 362.259 24.2908C362.848 24.7542 363.608 24.9579 364.54 24.902C365.567 24.8715 366.213 24.7392 366.524 24.7206L366.119 19.0099L365.618 18.9776Z" fill="black"/>
<path d="M376.342 18.4898L373.116 18.7458L372.573 22.6745L371.33 22.749L371.463 17.6918L383.093 17.2431L383.487 22.2376L382.365 22.2426L381.571 18.363L378.301 18.4034L378.698 30.2236L381.322 30.3154L381.378 31.2471L374.286 31.4858L374.23 30.5541L376.645 30.2845L376.342 18.4898Z" fill="black"/>
<path d="M392.178 30.4743C391.235 29.8141 390.532 29.0147 390.001 27.9557C389.47 26.8967 389.3 25.629 389.277 24.1966C389.348 22.7898 389.679 21.5543 390.27 20.4903C390.861 19.4263 391.685 18.6287 392.744 18.0977C393.803 17.5666 394.907 17.251 396.218 17.2969C397.125 17.3361 398.316 17.4516 399.646 17.8081L400.217 17.9608L399.921 21.3448L398.704 21.3243L398.314 18.9789C398.15 18.833 397.89 18.6615 397.415 18.5342C396.94 18.4069 396.439 18.3746 395.843 18.3168C395.032 18.3032 394.36 18.5305 393.732 18.9734C393.104 19.4163 392.615 20.1002 392.196 20.9046C391.846 21.8294 391.592 22.7798 391.546 24.0916C391.525 25.3084 391.651 26.3606 391.922 27.2482C392.194 28.1358 392.681 28.9792 393.339 29.5631C393.997 30.1469 394.732 30.4457 395.639 30.4848C396.355 30.473 396.76 30.4798 397.191 30.3916C397.527 30.2779 397.863 30.1643 398.13 29.9301L398.924 28.1058L400.09 28.3163L399.593 30.9332C399.282 30.9518 398.946 31.0655 398.42 31.1282C397.989 31.2165 397.532 31.3997 397.127 31.3929C396.696 31.4811 396.195 31.4488 395.574 31.4861C394.262 31.4401 393.122 31.1346 392.178 30.4743Z" fill="black"/>
<path d="M407.784 17.8494L407.745 18.7556L405.881 18.8674L405.198 28.2589L406.906 26.0682L412.737 19.8896L412.77 19.389L411.129 19.0512L411.168 18.1449L416.269 18.4933L416.23 19.3995L414.772 19.5182L414.004 31.1277L415.55 31.4401L415.511 32.3464L410.315 31.9726L410.354 31.0663L412.001 30.9986L412.615 21.4866L411.054 23.5128L405.101 29.7608L405.018 30.4515L406.78 30.7198L406.741 31.6261L401.449 31.2268L401.488 30.3206L403.041 30.2274L403.809 18.6178L402.358 18.3308L402.397 17.4246L407.784 17.8494Z" fill="black"/>
<path d="M428.062 19.7177L427.669 24.6036L426.383 24.4626L426.28 20.6662L422.161 20.0719L420.842 31.8393L424.054 32.3945L423.92 33.2752L416.607 32.4363L416.741 31.5555L418.769 31.5896L420.013 20.1074L418.112 19.5981L418.246 18.7173L428.062 19.7177Z" fill="black"/>
<path d="M431.21 21.2744L429.81 20.7974L429.944 19.9167L434.943 20.6451L434.809 21.5259L433.187 21.4986L432.458 26.4981L438.909 27.5135L439.637 22.514L438.142 22.0115L438.276 21.1308L443.276 21.8592L443.142 22.74L441.614 22.7382L439.871 34.1882L441.296 34.5701L441.162 35.4509L436.162 34.7224L436.297 33.8417L437.824 33.8435L438.654 28.4638L432.204 27.4484L431.373 32.8281L432.989 33.261L432.855 34.1417L427.76 33.3878L427.894 32.507L429.422 32.5089L431.21 21.2744Z" fill="black"/>
<path d="M450.03 23.2616L452.051 23.7013L453.924 37.2407L455.039 37.6413L454.904 38.5221L450.076 37.534L450.211 36.6532L451.807 36.7755L451.475 33.8345L446.172 32.719L444.768 35.2967L446.263 35.7992L446.129 36.68L441.776 35.8192L441.91 34.9384L443.127 34.9589L450.03 23.2616ZM450.622 26.3741L450.459 24.7008L449.741 26.2399L446.737 31.75L451.375 32.6872L450.622 26.3741Z" fill="black"/>
<path d="M460.721 34.682C460.098 36.2466 459.361 37.4753 458.657 38.2032C458.244 38.602 457.883 38.8107 457.547 38.9244C457.211 39.0381 456.805 39.0312 456.33 38.9039C455.76 38.7511 455.285 38.6238 455.025 38.4524L455.217 36.976C455.502 37.0523 455.977 37.1797 456.547 37.3325C456.737 37.3834 456.953 37.3393 457.169 37.2952C457.384 37.2511 457.53 37.0865 457.796 36.8523C459.034 35.656 460.298 32.8372 461.4 28.3452L461.782 26.9197L459.786 26.3849L460.041 25.4346L470.546 28.0456L470.291 28.9959L468.504 28.8227L465.689 40.0876L467.444 40.7615L467.215 41.6168L461.582 40.2094L461.812 39.3541L463.763 39.6733L466.578 28.4084L462.846 27.5104L462.413 29.1259C461.973 31.1471 461.344 33.1173 460.721 34.682Z" fill="black"/>
<path d="M476.792 35.5251C478.192 36.0021 479.23 36.6878 479.812 37.5567C480.395 38.4257 480.495 39.5729 480.069 40.7829C479.592 42.1829 478.836 43.101 477.803 43.5371C476.649 44.0427 475.432 44.0222 474.006 43.6402C473.816 43.5893 473.626 43.5384 473.436 43.4875C473.246 43.4365 473.056 43.3856 472.796 43.2142C472.157 42.9409 471.491 42.7626 470.947 42.5148L468.501 41.7577L468.73 40.9024L470.276 41.2148L473.661 30.1027L472.312 29.4356L472.541 28.5803L477.622 30.1455L477.393 31.0008L475.536 30.707L474.226 34.8376L476.792 35.5251ZM472.956 42.2384C473.146 42.2893 473.501 42.4862 473.881 42.588C474.926 42.8681 475.737 42.8818 476.46 42.4644C477.183 42.047 477.672 41.3631 477.952 40.3177C478.232 39.2724 478.221 38.5562 477.803 37.8332C477.455 37.2307 476.771 36.7419 475.752 36.3668L473.946 35.8829L472.126 41.9142C472.506 42.016 472.766 42.1874 472.956 42.2384ZM489.59 33.7596L489.36 34.6149L487.599 34.3466L484.214 45.4587L485.848 46.2021L485.619 47.0574L480.348 45.4414L480.577 44.5861L482.313 44.9494L485.698 33.8373L484.064 33.0938L484.293 32.2385L489.59 33.7596Z" fill="black"/>
<path d="M497.279 37.7552L495.955 36.9931L496.279 36.1633L500.999 37.9371L500.675 38.7669L499.129 38.4545L497.355 43.1739L503.544 45.5453L505.318 40.8259L503.994 40.0638L504.318 39.2339L509.038 41.0078L508.713 41.8376L507.262 41.5507L503.117 52.4591L504.466 53.1262L504.142 53.956L499.423 52.1822L499.747 51.3523L501.268 51.7598L503.238 46.6857L497.049 44.3143L495.078 49.3884L496.497 50.176L496.173 51.0058L491.384 49.1115L491.708 48.2816L493.229 48.6891L497.279 37.7552Z" fill="black"/>
<path d="M515.271 43.5946L517.19 44.4144L516.172 58.0961L517.116 58.7564L516.791 59.5862L512.243 57.5527L512.568 56.7229L514.063 57.2254L514.447 54.2725L509.423 52.1117L507.526 54.2515L508.945 55.0391L508.62 55.8689L504.522 54.0578L504.846 53.228L505.987 53.5335L515.271 43.5946ZM515.216 46.8394L515.459 45.1729L514.386 46.5152L510.274 51.2191L514.657 53.1066L515.216 46.8394Z" fill="black"/>
<path d="M528.982 51.343L527.26 50.1685L527.679 49.3641L532.055 51.6572L530.549 60.3189L530.008 62.7202L531.613 60.9096L537.781 54.6174L542.158 56.9105L541.738 57.7149L539.794 56.9901L535.743 67.924L537.111 68.9016L536.692 69.706L531.961 67.2159L532.38 66.4116L533.945 67.0345L537.059 59.2113L538.382 55.7969L536.415 57.8163L529.181 65.0452L528.117 64.4545L529.611 55.0766L530.268 51.484L528.332 54.5301L523.773 61.6607L525.331 62.6893L524.911 63.4937L520.63 61.226L521.049 60.4216L522.519 61.0191L528.982 51.343Z" fill="black"/>
<path d="M548.352 60.4037L550.1 61.4832L547.51 74.9475L548.454 75.6077L548.035 76.4121L543.804 73.9544L544.223 73.15L545.693 73.7475L546.336 70.9661L541.682 68.191L539.524 70.1594L540.797 71.1115L540.378 71.9159L536.597 69.6805L537.016 68.8762L538.131 69.2768L548.352 60.4037ZM547.917 63.5466L548.35 61.931L547.113 63.1274L542.411 67.3679L546.547 69.8002L547.917 63.5466Z" fill="black"/>
<path d="M556.621 66.7953L555.564 65.7991L556.078 65.0202L558.155 66.3916C558.51 66.5885 558.934 66.9059 559.289 67.1027C559.903 67.4711 560.448 67.7189 560.967 68.0617C562.43 69.0648 563.392 70.0356 563.638 71.0182C563.884 72.0009 563.699 73.0717 563.013 74.1103C562.473 74.9842 561.82 75.5221 561.002 75.9141C560.184 76.306 559.347 76.3874 558.467 76.2533C557.586 76.1191 556.661 75.7694 555.787 75.2297C555.432 75.0328 555.173 74.8614 554.843 74.5695C554.489 74.3726 554.324 74.2266 554.255 74.1061L552.001 77.5764L554.027 79.1379L553.512 79.9168L548.389 76.6088L548.904 75.8299L550.348 76.5224L556.621 66.7953ZM556.301 74.4508C557.175 74.9905 557.935 75.1942 558.798 75.0178C559.66 74.8414 560.434 74.2339 561.17 73.0053C561.71 72.1314 561.939 71.2761 561.712 70.604C561.484 69.9319 560.947 69.2785 560.003 68.6183C559.648 68.4214 559.294 68.2245 558.844 68.0021C558.584 67.8307 558.394 67.7798 558.394 67.7798L554.769 73.3272C555.098 73.6191 555.522 73.9365 556.301 74.4508Z" fill="black"/>
<path d="M561.03 84.1719C560.594 83.1384 560.494 81.9912 560.679 80.9203C560.864 79.8495 561.411 78.5699 562.243 77.3668C563.049 76.2587 563.994 75.3916 565.053 74.8605C566.112 74.3294 567.285 74.1343 568.476 74.2498C569.668 74.3653 570.783 74.7659 571.796 75.5467C572.575 76.0609 573.467 76.9112 574.334 77.8566L574.828 78.2945L572.708 80.884L571.67 80.1983L572.661 78.0194C572.617 77.8038 572.383 77.5374 572.174 77.1759C571.965 76.8144 571.446 76.4715 570.927 76.1287C570.243 75.6399 569.578 75.4616 568.766 75.448C567.955 75.4343 567.163 75.7312 566.414 76.2437C565.666 76.7561 564.841 77.5537 564.181 78.4972C563.52 79.4407 563.05 80.4352 562.701 81.36C562.446 82.3104 562.312 83.1911 562.583 84.0787C562.855 84.9663 563.297 85.5943 564.076 86.1085C564.596 86.4514 565.02 86.7688 565.4 86.8706C565.78 86.9725 566.065 87.0489 566.376 87.0303L568.088 85.9613L568.981 86.8116L567.039 88.7359C566.78 88.5644 566.4 88.4626 565.95 88.2402C565.475 88.1129 565.12 87.916 564.645 87.7887C564.29 87.5918 563.84 87.3695 563.321 87.0266C562.334 86.1508 561.466 85.2055 561.03 84.1719Z" fill="black"/>
<path d="M588.29 88.1151L587.681 88.8685L586.123 87.8399L580.201 95.1148L582.864 94.3004L591.149 92.6499L591.466 92.2256L590.365 91.0138L590.974 90.2604L594.976 93.5734L594.367 94.3268L593.043 93.5647L585.636 102.581L586.763 103.697L586.179 104.356L582.178 101.043L582.761 100.384L584.155 101.267L590.197 93.9226L587.75 94.6928L579.249 96.3875L578.811 96.8813L580.007 98.1186L579.423 98.777L575.327 95.4385L575.911 94.7801L577.209 95.6372L584.616 86.6213L583.584 85.53L584.193 84.7766L588.29 88.1151Z" fill="black"/>
<path d="M597.767 96.4602C598.312 96.708 598.641 96.9999 598.996 97.1968C599.351 97.3937 599.68 97.6856 599.94 97.857C601.092 98.8788 601.838 99.8937 602.084 100.876C602.33 101.859 602.101 102.714 601.397 103.442C600.692 104.17 599.969 104.588 599.063 104.549C598.227 104.63 597.371 104.401 596.592 103.886C597.39 104.711 597.877 105.555 597.958 106.391C598.04 107.228 597.715 108.058 597.132 108.716C596.256 109.704 595.197 110.235 594.101 110.145C592.979 110.15 591.82 109.534 590.408 108.341C589.819 107.877 589.446 107.37 589.072 106.862C588.699 106.355 588.49 105.994 588.256 105.727C588.117 105.486 587.978 105.245 587.908 105.125L590.332 102.922L590.99 103.506L589.809 105.634C590.036 106.306 590.574 106.959 591.302 107.664C591.961 108.248 592.505 108.495 593.247 108.388C593.894 108.256 594.591 107.934 595.201 107.18C595.759 106.617 595.937 105.952 596.02 105.261C596.104 104.57 595.591 103.822 594.768 103.092L593.78 102.216L594.485 101.488L595.308 102.218C595.732 102.536 596.156 102.853 596.632 102.98C597.107 103.108 597.607 103.14 598.159 102.982C598.71 102.824 599.097 102.521 599.535 102.027C600.119 101.368 600.367 100.824 600.235 100.177C600.197 99.5558 599.824 99.0484 599.166 98.4645C598.767 98.0521 598.412 97.8552 597.962 97.6329C597.608 97.436 597.297 97.4546 597.082 97.4987L595.68 98.5491L594.762 97.7938L596.59 95.5335C596.893 95.9204 597.248 96.1173 597.767 96.4602Z" fill="black"/>
<path d="M608.908 108.103L608.022 106.847L608.701 106.214L610.46 108.01C610.79 108.302 611.188 108.714 611.682 109.152C612.176 109.59 612.505 109.882 612.67 110.028C613.866 111.265 614.613 112.28 614.669 113.212C614.845 114.074 614.521 114.904 613.817 115.632C613.138 116.265 612.44 116.587 611.699 116.694C610.957 116.801 610.102 116.572 609.323 116.057C610.215 116.908 610.702 117.751 610.758 118.683C610.814 119.614 610.515 120.349 609.811 121.077C608.961 121.97 607.832 122.38 606.736 122.29C605.544 122.175 604.221 121.413 602.765 120.004C602.436 119.712 602.132 119.325 601.898 119.059C601.265 118.38 600.866 117.967 600.701 117.822L598.942 116.026L599.621 115.393L600.893 116.345L608.908 108.103ZM603.374 119.251C604.267 120.101 605.046 120.615 605.857 120.629C606.668 120.643 607.366 120.32 608.044 119.687C608.723 119.054 609.022 118.319 608.985 117.698C608.948 117.077 608.53 116.354 607.733 115.529C606.84 114.679 606.277 114.121 606.042 113.854L602.134 117.798C602.178 118.013 602.672 118.451 603.374 119.251ZM607.595 113.761L608.323 114.465C608.982 115.049 609.596 115.418 610.217 115.38C610.838 115.343 611.536 115.021 612.12 114.362C612.703 113.704 613.046 113.184 613.009 112.563C612.972 111.942 612.554 111.219 611.826 110.515C611.497 110.223 611.168 109.931 610.744 109.614L610.414 109.322L606.772 113.031C606.962 113.082 607.196 113.349 607.595 113.761Z" fill="black"/>
<path d="M621.209 118.835L622.639 120.338L616.256 132.379L616.907 133.368L616.228 134.001L612.924 130.366L613.603 129.733L614.755 130.754L616.254 128.202L612.552 124.154L609.882 125.374L610.863 126.656L610.184 127.289L607.184 124.04L607.863 123.407L608.781 124.162L621.209 118.835ZM619.729 121.697L620.637 120.209L619.096 121.019L613.395 123.667L616.629 127.182L619.729 121.697Z" fill="black"/>
<path d="M618.653 135.975C618.458 134.802 618.643 133.731 619.139 132.642C619.634 131.553 620.415 130.539 621.576 129.628C622.642 128.692 623.796 128.186 624.994 127.896C626.192 127.606 627.384 127.721 628.499 128.122C629.613 128.522 630.557 129.183 631.399 130.223C632.006 130.997 632.658 131.986 633.258 133.166L633.511 133.743L630.828 135.774L630.056 134.854L631.592 132.923C631.548 132.708 631.529 132.397 631.32 132.035C631.112 131.674 630.833 131.192 630.435 130.78C629.897 130.126 629.282 129.758 628.522 129.554C627.762 129.35 626.925 129.432 626.038 129.703C625.15 129.975 624.186 130.531 623.266 131.303C622.346 132.075 621.616 132.898 621.102 133.677C620.562 134.551 620.333 135.407 620.32 136.218C620.306 137.029 620.603 137.822 621.21 138.595C621.679 139.128 622.008 139.42 622.363 139.617C622.717 139.814 622.977 139.986 623.288 139.967L625.183 139.354L625.835 140.344L623.52 141.761C623.355 141.615 623.026 141.323 622.602 141.005C622.152 140.783 621.823 140.491 621.494 140.199C621.164 139.907 620.74 139.59 620.367 139.082C619.379 138.207 618.848 137.148 618.653 135.975Z" fill="black"/>
<path d="M637.677 142.906C638.824 142.806 639.8 142.965 640.725 143.315C641.65 143.665 642.473 144.394 643.08 145.168C643.827 146.183 644.193 147.096 644.319 148.148C644.349 149.175 644.189 150.151 643.624 151.12C643.059 152.089 642.304 153.007 641.168 153.823C640.008 154.734 638.733 155.31 637.535 155.6C636.337 155.89 635.24 155.8 634.125 155.399C633.01 154.999 632.257 154.389 631.58 153.495C630.833 152.48 630.397 151.446 630.272 150.394C630.146 149.342 630.401 148.392 630.871 147.397C631.436 146.428 632.192 145.51 633.232 144.668L631.435 142.252L627.083 145.567L627.918 147.013L627.17 147.526L624.088 143.441L624.837 142.928L625.963 144.045L635.174 137.04L634.409 135.715L635.183 135.107L638.195 139.072L637.421 139.679L636.294 138.563L632.329 141.575L634.126 143.991C635.496 143.442 636.599 143.126 637.677 142.906ZM639.297 144.46C638.055 144.535 636.565 145.154 634.897 146.439C633.469 147.584 632.473 148.641 632.047 149.851C631.621 151.061 631.746 152.113 632.493 153.128C633.265 154.048 634.165 154.493 635.432 154.323C636.675 154.249 638.095 153.509 639.738 152.319C641.165 151.174 642.162 150.117 642.588 148.907C643.014 147.697 642.888 146.645 642.211 145.75C641.534 144.856 640.54 144.386 639.297 144.46Z" fill="black"/>
<path d="M645.626 162.657C645.422 163.417 644.952 164.412 644.431 165.596C644.012 166.401 643.833 167.066 643.636 167.42C643.535 167.801 643.433 168.181 643.502 168.301L643.73 168.973L642.981 169.486L641.653 167.602C641.513 167.361 641.52 166.955 641.768 166.411C642.016 165.866 642.34 165.036 642.81 164.041C643.426 162.882 643.776 161.958 644.049 161.318C644.323 160.678 644.26 160.152 644.146 159.816L643.495 158.826L639.124 161.832L639.839 163.347L639.09 163.86L636.25 159.635L636.998 159.123L638.005 160.309L647.588 153.812L646.944 152.417L647.692 151.904L650.463 156.008L649.715 156.521L648.708 155.334L644.243 158.314L645.103 159.665L651.688 159.8L650.948 158.379L651.697 157.867L654.233 161.704L653.485 162.216L652.453 161.125L645.704 160.844C645.887 161.301 645.83 161.897 645.626 162.657Z" fill="black"/>
<path d="M645.253 172.03C645.318 171.028 645.598 169.983 646.353 169.065C647.013 168.121 647.959 167.254 649.164 166.559C650.394 165.768 651.618 165.383 652.765 165.283C654.007 165.208 655.078 165.393 656.073 165.863C657.067 166.334 657.89 167.063 658.516 168.148C659.49 169.835 659.799 171.344 659.271 172.934C658.768 174.429 657.601 175.746 655.768 176.884C654.537 177.675 653.314 178.06 652.046 178.23C650.804 178.304 649.733 178.119 648.643 177.623C647.649 177.153 646.852 176.328 646.2 175.339C645.504 174.134 645.284 173.056 645.253 172.03ZM654.791 166.844C653.574 166.824 652.015 167.323 650.302 168.392C648.71 169.391 647.619 170.423 647.098 171.607C646.482 172.766 646.607 173.818 647.233 174.903C647.885 175.892 648.854 176.458 650.071 176.478C651.383 176.524 652.847 176 654.56 174.931C656.152 173.931 657.243 172.9 657.764 171.715C658.26 170.626 658.255 169.504 657.629 168.419C656.977 167.43 656.103 166.89 654.791 166.844Z" fill="black"/>
<path d="M662.283 176.898L661.759 175.434L662.602 174.947L663.854 177.116C664.063 177.477 664.341 177.959 664.715 178.467C665.088 178.974 665.297 179.336 665.436 179.577C666.245 181.118 666.656 182.246 666.496 183.222C666.337 184.198 665.873 184.787 665.004 185.369C664.281 185.786 663.419 185.962 662.633 185.854C661.848 185.745 661.138 185.351 660.531 184.577C661.157 185.662 661.333 186.524 661.174 187.5C661.04 188.381 660.456 189.039 659.612 189.526C658.528 190.152 657.381 190.252 656.266 189.852C655.151 189.451 654.119 188.36 653.076 186.552C652.867 186.191 652.684 185.734 652.475 185.373C651.988 184.529 651.735 183.952 651.665 183.832L650.413 181.663L651.231 181.271L652.117 182.527L662.283 176.898ZM653.824 186.04C654.45 187.124 655.083 187.803 655.843 188.007C656.604 188.21 657.345 188.104 658.189 187.617C659.032 187.13 659.496 186.541 659.648 185.971C659.801 185.4 659.625 184.538 659.068 183.574C658.442 182.49 658.025 181.767 657.885 181.526L652.996 184.188C653.084 184.619 653.337 185.196 653.824 186.04ZM659.406 181.933L659.867 182.872C660.285 183.595 660.874 184.058 661.444 184.211C662.109 184.389 662.756 184.257 663.599 183.77C664.322 183.352 664.76 182.859 664.913 182.288C665.066 181.718 664.864 180.951 664.307 179.987C664.099 179.626 663.795 179.239 663.612 178.782L663.403 178.421L658.849 180.969C658.989 181.21 659.128 181.451 659.406 181.933Z" fill="black"/>
<path d="M676.842 202.393L676.024 202.785L675.163 201.434L664.745 206.485L665.313 208.165L664.495 208.557L662.213 203.77L663.031 203.378L663.891 204.729L674.405 199.703L671.775 194.313L661.236 199.434L661.804 201.114L660.986 201.506L658.678 196.813L659.496 196.421L660.287 197.652L670.706 192.6L670.207 191.041L671.025 190.649L676.842 202.393Z" fill="black"/>
<path d="M666.538 211.957C666.723 210.886 667.263 210.012 667.993 209.189C668.817 208.391 669.832 207.645 671.107 207.07C672.381 206.494 673.675 206.23 674.866 206.345C676.057 206.461 677.103 206.741 678.046 207.401C678.99 208.061 679.667 208.956 680.103 209.989C680.836 211.816 680.929 213.368 680.141 214.787C679.449 216.231 678.022 217.377 676.075 218.179C674.705 218.729 673.412 218.993 672.221 218.878C671.03 218.762 669.889 218.457 668.946 217.797C668.002 217.136 667.325 216.242 666.794 215.183C666.478 214.08 666.283 212.907 666.538 211.957ZM676.695 208.261C675.434 208.025 673.926 208.334 671.979 209.137C670.248 209.895 668.992 210.781 668.306 211.82C667.621 212.858 667.436 213.929 667.941 215.083C668.447 216.237 669.295 216.872 670.556 217.108C671.817 217.344 673.421 217.061 675.272 216.233C677.003 215.474 678.259 214.588 678.945 213.55C679.631 212.511 679.721 211.415 679.31 210.286C678.805 209.132 677.956 208.497 676.695 208.261Z" fill="black"/>
<path d="M676.448 224.39C674.723 224.743 673.361 224.887 672.385 224.728C671.91 224.6 671.434 224.473 671.2 224.207C670.871 223.915 670.637 223.648 670.454 223.192C670.201 222.615 670.113 222.184 670.094 221.873L671.489 221.228C671.508 221.539 671.691 221.995 671.944 222.572C671.988 222.788 672.152 222.934 672.317 223.08C672.482 223.226 672.672 223.277 672.957 223.353C674.693 223.717 677.71 223.099 681.914 221.475L683.284 220.926L682.722 218.84L683.635 218.473L687.451 228.561L686.538 228.928L685.729 227.387L674.848 231.499L675.296 233.249L674.409 233.52L672.4 228.093L673.287 227.822L674.141 229.578L685.021 225.465L683.72 221.959L682.135 222.553C680.042 223.52 678.172 224.038 676.448 224.39Z" fill="black"/>
<path d="M687.529 232.452L687.22 230.944L688.108 230.672L691.082 239.72L688.438 240.844L688.097 239.836L689.619 238.716L688.262 234.278L683.247 235.889L684.296 238.818L685.874 238.63L686.215 239.638L682.087 240.976L681.746 239.968L683.167 239.228L682.239 236.23L676.983 237.979L678.809 242.95L681.407 243.137L681.412 244.258L678.135 244.704L674.864 234.865L675.751 234.593L676.396 235.988L687.529 232.452Z" fill="black"/>
<path d="M692.315 247.282L691.292 244.258L687.299 244.715L687.008 243.517L691.871 242.477L695.07 253.724L690.271 255.29L689.955 254.187L693.563 252.506L692.781 249.342L681.44 252.516L681.969 255.103L681.081 255.374L679.144 248.54L680.031 248.268L680.853 250.526L692.315 247.282Z" fill="black"/>
<path d="M689.374 263.198L689.198 262.336C688.964 262.07 688.488 261.943 687.823 261.764C687.158 261.586 686.372 261.477 685.396 261.318C684.421 261.158 683.755 260.98 683.28 260.853C682.805 260.725 682.546 260.554 682.501 260.338L681.947 257.847L682.809 257.67L683.131 258.368C683.201 258.489 683.46 258.66 683.815 258.857C684.195 258.959 684.765 259.111 685.5 259.41C686.356 259.639 687.116 259.843 687.781 260.021C688.326 260.269 688.775 260.492 689.105 260.783C689.144 259.877 689.443 259.142 689.906 258.554C690.49 257.895 691.213 257.478 692.075 257.301C693.488 256.967 694.654 257.178 695.382 257.882C696.11 258.586 696.711 259.766 697.089 261.395C697.203 261.731 697.266 262.257 697.328 262.783C697.366 263.404 697.454 263.835 697.568 264.172L698.192 266.783L697.304 267.055L696.685 265.565L685.376 268.238L685.633 269.937L684.797 270.019L683.479 264.674L684.341 264.498L684.909 266.178L689.702 265.018L689.374 263.198ZM696.371 262.934C696.309 262.408 696.246 261.882 696.158 261.451C695.912 260.468 695.564 259.866 695.07 259.428C694.576 258.99 693.765 258.976 692.782 259.222C691.8 259.468 691.077 259.886 690.708 260.5C690.34 261.114 690.231 261.9 690.477 262.883C690.723 263.865 690.856 264.512 690.995 264.753L696.555 263.391L696.371 262.934Z" fill="black"/>
<path d="M698.558 273.4L697.871 270.262L693.859 270.41L693.664 269.237L698.615 268.628L700.857 280.026L695.969 281.161L695.774 279.988L699.496 278.643L699.025 275.461L687.437 277.652L687.751 280.283L686.888 280.459L685.503 273.467L686.365 273.291L687.065 275.617L698.558 273.4Z" fill="black"/>
<path d="M689.195 290.855C689.666 289.861 690.421 288.943 691.385 288.386C692.374 287.735 693.598 287.35 694.986 287.11C696.349 286.966 697.661 287.012 698.75 287.508C699.865 287.908 700.783 288.664 701.555 289.584C702.327 290.503 702.738 291.632 702.908 292.9C703.059 293.857 703.064 294.979 702.897 296.36L702.839 296.956L699.518 297.186L699.349 295.919L701.606 295.097C701.752 294.933 701.854 294.553 701.86 294.147C701.867 293.741 701.925 293.146 701.767 292.594C701.66 291.853 701.338 291.155 700.775 290.597C700.211 290.038 699.502 289.644 698.552 289.39C697.601 289.135 696.574 289.166 695.332 289.24C694.16 289.435 693.177 289.681 692.238 290.143C691.3 290.604 690.646 291.142 690.158 291.826C689.669 292.51 689.535 293.391 689.616 294.227C689.748 294.874 689.811 295.4 690.02 295.762C690.134 296.098 690.368 296.364 690.602 296.631L692.503 297.14L692.482 298.357L689.763 298.239C689.719 298.024 689.631 297.593 689.353 297.111C689.169 296.654 688.961 296.293 688.873 295.862C688.784 295.431 688.601 294.974 688.564 294.353C688.584 293.136 688.7 291.945 689.195 290.855Z" fill="black"/>
<path d="M704.098 304.423L703.166 304.479L702.744 302.634L693.351 303.479L695.738 304.832L702.818 309.581L703.344 309.518L703.397 307.8L704.329 307.744L704.791 312.859L703.86 312.915L703.525 311.502L691.933 312.572L691.905 314.194L690.974 314.25L690.536 309.04L691.468 308.984L691.846 310.613L701.335 309.794L699.017 308.562L691.867 303.692L691.246 303.73L691.193 305.447L690.262 305.503L689.824 300.293L690.756 300.237L691.065 301.746L702.658 300.676L702.754 299.174L703.686 299.118L704.098 304.423Z" fill="black"/>
<path d="M705.379 324.73L700.505 325.054L700.431 323.812L704.19 323.087L704.163 319.006L692.412 319.524L692.358 322.769L691.426 322.825L691.048 315.492L691.98 315.436L692.256 317.445L703.817 316.876L703.946 314.874L704.878 314.818L705.379 324.73Z" fill="black"/>
<path d="M704.298 328.006L704.49 326.529L705.396 326.568L705.358 331.651L704.452 331.612L704.264 330.034L699.276 330.021L699.237 336.631L704.224 336.644L704.416 335.167L705.322 335.206L705.31 340.194L704.404 340.155L704.19 338.672L692.567 338.715L692.375 340.191L691.469 340.152L691.481 335.164L692.387 335.204L692.576 336.782L697.969 336.801L698.008 330.191L692.615 330.172L692.398 331.743L691.492 331.704L691.434 326.596L692.34 326.635L692.554 328.118L704.298 328.006Z" fill="black"/>
<path d="M705.34 346.925L705.306 348.953L692.233 352.885L692.023 354.051L691.116 354.012L691.319 349.075L692.225 349.114L692.318 350.667L695.171 349.904L695.406 344.466L692.726 343.443L692.509 345.014L691.602 344.975L691.773 340.539L692.679 340.578L692.779 341.725L705.34 346.925ZM702.29 348.043L703.92 347.664L702.234 347.111L696.305 344.911L696.059 349.632L702.29 348.043Z" fill="black"/>
<path d="M695.704 359.316C693.994 358.858 692.784 358.431 691.935 357.797C691.511 357.479 691.182 357.187 691.068 356.851C690.86 356.49 690.866 356.084 690.873 355.679C690.931 355.083 690.938 354.677 691.109 354.418L692.637 354.42C692.56 354.705 692.528 355.205 692.47 355.801C692.419 355.991 692.463 356.207 692.603 356.448C692.647 356.663 692.811 356.809 693.071 356.98C694.413 358.053 697.48 358.773 701.96 359.159L703.462 359.255L703.832 357.114L704.738 357.153L703.794 367.9L702.887 367.861L702.845 366.118L691.312 365.065L690.923 366.896L690.017 366.857L690.544 361.091L691.45 361.13L691.441 363.063L702.974 364.116L703.277 360.326L701.585 360.178C699.297 359.973 697.346 359.654 695.704 359.316Z" fill="black"/>
<path d="M697.346 375.238C697.154 376.714 696.633 377.899 695.739 378.576C694.939 379.278 693.862 379.499 692.575 379.358C691.194 379.191 690.155 378.506 689.504 377.516C688.852 376.527 688.683 375.259 688.874 373.783C688.925 373.593 688.976 373.403 688.932 373.187C688.888 372.972 689.034 372.807 689.11 372.522C689.289 371.857 689.372 371.166 689.525 370.596L689.902 368.048L690.782 368.183L690.755 369.805L702.326 371.479L702.828 369.984L703.709 370.118L702.904 375.403L702.023 375.269L701.911 373.405L697.603 372.76L697.346 375.238ZM690.112 372.586C690.061 372.776 689.959 373.157 689.952 373.562C689.767 374.633 689.969 375.4 690.507 376.054C691.045 376.707 691.754 377.101 692.85 377.191C693.826 377.35 694.688 377.174 695.221 376.706C695.849 376.263 696.148 375.528 696.333 374.457L696.627 372.601L690.341 371.731C690.239 372.111 690.163 372.396 690.112 372.586ZM701.051 387.639L700.171 387.504L700.223 385.787L688.748 384.138L688.29 385.849L687.409 385.715L688.144 380.31L689.025 380.444L688.972 382.161L700.448 383.81L700.906 382.099L701.787 382.234L701.051 387.639Z" fill="black"/>
<path d="M698.24 395.849L698.812 394.474L699.668 394.703L698.534 399.696L697.678 399.467L697.801 397.87L692.903 396.761L691.482 403.205L696.38 404.314L696.952 402.939L697.807 403.168L696.698 408.066L695.843 407.837L695.94 406.335L684.573 403.9L684.096 405.3L683.241 405.071L684.349 400.173L685.205 400.403L685.108 401.905L690.411 403.02L691.832 396.576L686.529 395.461L686.001 397.051L685.146 396.822L686.28 391.829L687.135 392.058L687.038 393.56L698.24 395.849Z" fill="black"/>
<path d="M695.208 414.389L694.673 416.385L681.096 417.636L680.601 418.725L679.745 418.496L680.924 413.719L681.779 413.948L681.561 415.52L684.452 415.377L685.757 410.125L683.3 408.652L682.702 410.121L681.847 409.892L682.898 405.59L683.753 405.82L683.638 407.011L695.208 414.389ZM692.051 414.765L693.794 414.723L692.28 413.91L686.942 410.646L685.814 415.233L692.051 414.765Z" fill="black"/>
<path d="M689.682 429.308L690.597 427.414L691.427 427.738L689.869 432.413L681.066 432.194L678.658 432.058L680.761 433.334L687.929 438.514L686.37 443.189L685.54 442.865L685.98 440.844L674.467 438.574L673.775 440.018L672.945 439.694L674.631 434.543L675.461 434.868L675.123 436.509L683.372 438.414L686.939 439.166L684.628 437.528L676.377 431.446L676.778 430.331L686.253 430.324L689.998 430.411L686.635 428.898L678.888 425.498L678.119 427.228L677.289 426.903L678.822 422.323L679.652 422.647L679.339 424.193L689.682 429.308Z" fill="black"/>
<path d="M683.751 449.923L683.026 451.868L669.407 451.376L668.842 452.345L668.012 452.021L669.856 447.422L670.686 447.746L670.278 449.267L673.187 449.435L675.158 444.361L672.897 442.533L672.11 443.952L671.28 443.627L672.901 439.478L673.731 439.802L673.52 440.968L683.751 449.923ZM680.506 449.868L682.198 450.016L680.831 449.038L675.981 445.091L674.283 449.525L680.506 449.868Z" fill="black"/>
<path d="M678.683 458.954L679.515 457.751L680.344 458.075L679.328 460.349C679.105 460.799 679.003 461.179 678.807 461.534C678.533 462.174 678.38 462.744 678.133 463.289C677.389 464.923 676.608 465.936 675.67 466.397C674.757 466.764 673.73 466.794 672.451 466.248C671.551 465.803 670.867 465.314 670.355 464.566C669.842 463.817 669.641 463.05 669.585 462.119C669.529 461.187 669.783 460.236 670.228 459.337C670.425 458.982 670.501 458.697 670.698 458.343C670.895 457.988 670.946 457.798 671.067 457.728L667.323 456.114L666.116 458.337L665.286 458.013L667.79 452.471L668.62 452.795L668.117 454.29L678.683 458.954ZM671.127 459.782C670.683 460.681 670.669 461.492 670.941 462.38C671.212 463.268 671.965 463.877 673.245 464.423C674.239 464.894 675.051 464.907 675.628 464.654C676.325 464.332 676.814 463.648 677.284 462.654C677.481 462.299 677.583 461.919 677.71 461.444C677.787 461.159 677.838 460.969 677.863 460.874L671.75 458.217C671.674 458.502 671.426 459.047 671.127 459.782Z" fill="black"/>
<path d="M662.216 466.052C663.18 465.495 664.283 465.18 665.404 465.175C666.621 465.195 667.857 465.526 669.111 466.168C670.365 466.809 671.378 467.59 672.03 468.579C672.776 469.594 673.092 470.697 673.192 471.845C673.292 472.992 673.081 474.158 672.465 475.317C672.02 476.216 671.36 477.16 670.554 478.268L670.211 478.787L667.279 477.187L667.774 476.097L670.15 476.734C670.366 476.69 670.632 476.455 670.924 476.126C671.216 475.797 671.438 475.347 671.781 474.828C672.175 474.119 672.258 473.428 672.082 472.566C671.975 471.824 671.557 471.101 670.95 470.327C670.317 469.648 669.469 469.014 668.31 468.398C667.22 467.902 666.2 467.527 665.224 467.367C664.249 467.208 663.317 467.263 662.499 467.655C661.706 467.952 661.148 468.516 660.703 469.415C660.43 470.055 660.208 470.505 660.201 470.91C660.099 471.29 660.118 471.601 660.231 471.937L661.567 473.415L660.906 474.359L658.69 472.746C658.767 472.461 658.868 472.081 658.996 471.606C659.123 471.131 659.13 470.725 659.257 470.25C659.359 469.87 659.607 469.325 659.855 468.78C660.471 467.621 661.226 466.703 662.216 466.052Z" fill="black"/>
<path d="M662.588 493.551L661.809 493.037L662.578 491.307L654.472 486.589L655.648 489.043L658.591 497.064L659.041 497.286L660.114 495.944L660.893 496.458L658.289 500.853L657.51 500.339L658.082 498.964L648.038 493.115L647.085 494.388L646.281 493.969L648.91 489.479L649.715 489.898L648.997 491.437L657.173 496.276L655.946 494.012L653.028 485.896L652.413 485.528L651.315 486.965L650.511 486.546L653.165 481.961L653.97 482.38L653.372 483.85L663.417 489.699L664.343 488.521L665.122 489.035L662.588 493.551Z" fill="black"/>
<path d="M655.87 504.178C655.622 504.722 655.495 505.197 655.298 505.552C655.101 505.907 654.904 506.261 654.733 506.521C653.876 507.819 653.026 508.712 652.113 509.078C651.2 509.445 650.293 509.406 649.419 508.866C648.545 508.326 648.128 507.603 647.952 506.741C647.775 505.879 647.884 505.093 648.234 504.168C647.573 505.112 646.799 505.719 645.937 505.896C645.075 506.072 644.289 505.964 643.51 505.449C642.377 504.738 641.7 503.844 641.6 502.696C641.474 501.644 641.831 500.314 642.859 498.756C643.228 498.142 643.666 497.648 644.103 497.154C644.516 496.755 644.903 496.452 645.169 496.217C645.436 495.983 645.582 495.819 645.677 495.844L648.197 497.843L647.682 498.622L645.383 497.701C644.78 498.048 644.222 498.612 643.562 499.555C643.073 500.239 642.99 500.93 643.122 501.576C643.254 502.223 643.818 502.781 644.692 503.321C645.306 503.69 645.971 503.868 646.713 503.761C647.455 503.654 648.108 503.116 648.648 502.242L649.359 501.109L650.233 501.648L649.693 502.522C649.376 502.947 649.248 503.422 649.121 503.897C649.089 504.398 649.152 504.924 649.335 505.38C649.518 505.837 649.917 506.249 650.436 506.592C651.12 507.081 651.811 507.164 652.362 507.006C652.914 506.848 653.447 506.38 653.936 505.696C654.253 505.272 654.475 504.822 654.482 504.417C654.584 504.037 654.565 503.726 654.426 503.485L653.135 502.222L653.795 501.279L656.278 502.657C656.22 503.253 656.023 503.607 655.87 504.178Z" fill="black"/>
<path d="M646.083 517.139L647.199 516.012L647.978 516.527L646.512 518.578C646.22 518.907 645.997 519.357 645.629 519.971C645.286 520.491 645.089 520.845 644.918 521.105C643.94 522.473 642.995 523.34 642.107 523.611C641.22 523.883 640.339 523.749 639.586 523.139C638.902 522.651 638.364 521.997 638.187 521.135C637.986 520.368 638.094 519.582 638.418 518.752C637.758 519.696 636.984 520.303 636.097 520.575C635.235 520.751 634.354 520.617 633.6 520.008C632.587 519.227 632.031 518.263 631.931 517.116C631.831 515.969 632.333 514.473 633.577 512.872C633.869 512.542 634.066 512.188 634.358 511.859C634.967 511.105 635.31 510.586 635.431 510.516L636.897 508.465L637.676 508.979L636.914 510.303L646.083 517.139ZM634.166 513.335C633.385 514.348 633.131 515.298 633.142 516.015C633.154 516.731 633.667 517.479 634.446 517.993C635.199 518.603 635.959 518.806 636.606 518.674C637.253 518.542 637.906 518.004 638.541 517.155C639.321 516.142 639.715 515.433 639.887 515.173L635.359 511.923C635.239 511.993 634.801 512.486 634.166 513.335ZM640.221 516.587L639.586 517.436C639.097 518.119 638.919 518.785 639.051 519.431C639.184 520.078 639.627 520.706 640.31 521.195C640.994 521.683 641.66 521.862 642.281 521.824C642.832 521.667 643.46 521.224 644.12 520.28C644.412 519.951 644.635 519.501 644.832 519.147L645.029 518.792L640.856 515.739C640.805 515.929 640.538 516.163 640.221 516.587Z" fill="black"/>
<path d="M637.307 530.881L636.063 532.483L623.108 527.993L622.283 528.791L621.53 528.181L624.602 524.319L625.355 524.928L624.498 526.226L627.178 527.25L630.567 522.963L628.96 520.598L627.844 521.724L627.09 521.115L629.845 517.677L630.598 518.286L630.007 519.35L637.307 530.881ZM634.222 529.851L635.787 530.473L634.736 529.072L631.244 523.858L628.318 527.556L634.222 529.851Z" fill="black"/>
<path d="M619.955 531.019C621.058 530.703 622.18 530.698 623.32 531.004C624.461 531.309 625.594 532.021 626.677 532.922C627.759 533.823 628.506 534.838 628.917 535.966C629.327 537.095 629.427 538.242 629.217 539.408C629.006 540.574 628.416 541.638 627.66 542.556C627.051 543.309 626.131 544.082 625.091 544.923L624.583 545.297L622.165 542.917L623.015 542.024L625.143 543.206C625.359 543.162 625.695 543.048 626.082 542.744C626.443 542.536 626.856 542.137 627.199 541.618C627.757 541.054 628.056 540.319 628.07 539.508C628.178 538.722 627.976 537.955 627.489 537.112C627.002 536.268 626.42 535.399 625.407 534.619C624.489 533.863 623.641 533.229 622.716 532.879C621.791 532.529 620.91 532.395 620.074 532.477C619.237 532.558 618.514 532.975 617.905 533.729C617.467 534.223 617.149 534.647 617.047 535.027C616.851 535.382 616.869 535.692 616.793 535.977L617.646 537.734L616.726 538.506L615.043 536.425C615.189 536.261 615.386 535.906 615.634 535.361C615.856 534.911 616.053 534.557 616.25 534.202C616.447 533.847 616.764 533.423 617.202 532.929C617.837 532.081 618.852 531.334 619.955 531.019Z" fill="black"/>
<path d="M616.04 550.952C616.355 552.055 616.385 553.082 616.131 554.032C615.876 554.983 615.432 555.882 614.632 556.585C613.782 557.477 612.818 558.034 611.835 558.28C610.853 558.526 609.756 558.436 608.736 558.061C607.716 557.685 606.678 557 605.69 556.124C604.633 555.128 603.817 553.992 603.432 552.769C603.021 551.64 602.826 550.467 603.106 549.422C603.291 548.351 603.857 547.382 604.586 546.559C605.437 545.667 606.401 545.11 607.409 544.769C608.391 544.523 609.488 544.613 610.508 544.988C611.527 545.363 612.566 546.049 613.554 546.925L615.667 544.741L611.698 540.927L610.416 541.908L609.783 541.229L613.33 537.494L613.989 538.078L613.037 539.351L621.374 547.39L622.535 546.479L623.168 547.158L619.646 550.798L619.013 550.119L619.965 548.846L616.325 545.325L614.212 547.509C615.193 548.79 615.724 549.849 616.04 550.952ZM614.865 552.675C614.575 551.476 613.715 550.126 612.259 548.717C610.967 547.454 609.644 546.692 608.383 546.456C607.122 546.22 606.019 546.536 605.168 547.428C604.318 548.321 604.063 549.271 604.354 550.469C604.644 551.667 605.504 553.018 607.055 554.452C608.346 555.715 609.575 556.452 610.81 556.783C612.046 557.114 613.054 556.773 613.904 555.88C614.754 554.988 615.035 553.942 614.865 552.675Z" fill="black"/>
<path d="M597.768 561.742C596.982 561.634 595.937 561.354 594.702 561.022C593.846 560.793 593.181 560.615 592.706 560.488C592.326 560.386 592.015 560.405 591.774 560.544L591.077 560.866L590.444 560.187L592.093 558.592C592.334 558.453 592.67 558.339 593.336 558.517C593.906 558.67 594.761 558.899 595.902 559.205C597.112 559.631 598.062 559.886 598.848 559.994C599.513 560.173 600.039 560.11 600.331 559.781L601.156 558.983L597.523 555.056L596.146 556.011L595.513 555.332L599.295 551.864L599.928 552.543L598.906 553.695L606.805 562.228L608.061 561.343L608.694 562.022L605.033 565.42L604.4 564.742L605.352 563.469L601.719 559.541L600.507 560.643L601.399 567.197L602.655 566.311L603.288 566.99L599.894 570.155L599.261 569.476L600.188 568.298L599.441 561.58C599.27 561.839 598.554 561.851 597.768 561.742Z" fill="black"/>
<path d="M588.488 562.923C589.541 562.797 590.612 562.982 591.58 563.547C592.67 564.043 593.563 564.893 594.499 565.959C595.436 567.025 596.037 568.205 596.327 569.403C596.617 570.601 596.622 571.723 596.247 572.742C595.872 573.762 595.306 574.731 594.386 575.503C592.934 576.744 591.374 577.243 589.802 577.025C588.231 576.808 586.768 575.805 585.268 574.181C584.331 573.115 583.731 571.935 583.441 570.737C583.151 569.539 583.146 568.417 583.546 567.302C583.852 566.162 584.487 565.313 585.406 564.541C586.403 563.484 587.436 563.048 588.488 562.923ZM595.05 571.505C594.881 570.237 594.141 568.817 592.805 567.339C591.565 565.886 590.362 565.054 589.152 564.628C587.942 564.202 586.864 564.423 585.944 565.195C585.024 565.967 584.649 566.987 584.819 568.254C584.989 569.522 585.728 570.943 587.038 572.516C588.279 573.969 589.482 574.8 590.692 575.227C591.927 575.558 593.005 575.337 593.925 574.565C594.845 573.793 595.22 572.773 595.05 571.505Z" fill="black"/>
<path d="M586.357 580.38L587.683 579.615L588.29 580.389L586.355 581.908C585.994 582.116 585.581 582.515 585.143 583.009C584.731 583.408 584.344 583.711 584.103 583.851C582.701 584.901 581.642 585.432 580.71 585.488C579.779 585.544 578.974 585.125 578.367 584.351C577.829 583.697 577.532 582.905 577.546 582.093C577.559 581.282 577.858 580.547 578.442 579.889C577.522 580.661 576.609 581.028 575.703 580.989C574.797 580.949 573.992 580.53 573.385 579.756C572.638 578.741 572.323 577.638 572.533 576.472C572.744 575.307 573.696 574.034 575.244 572.819C575.631 572.515 575.992 572.306 576.259 572.072C577.032 571.465 577.514 571.186 577.66 571.022L579.595 569.503L580.108 570.252L578.991 571.378L586.357 580.38ZM575.972 573.523C574.957 574.27 574.442 575.049 574.334 575.834C574.225 576.62 574.427 577.387 575.034 578.161C575.642 578.935 576.256 579.303 576.947 579.387C577.638 579.47 578.335 579.147 579.23 578.47C580.244 577.724 580.898 577.186 581.069 576.926L577.659 572.549C577.278 572.447 576.771 572.821 575.972 573.523ZM580.903 578.308L580.129 578.915C579.476 579.453 579.107 580.067 579.024 580.758C578.941 581.449 579.168 582.121 579.801 582.8C580.339 583.453 580.953 583.821 581.549 583.879C582.145 583.937 582.842 583.615 583.737 582.937C584.124 582.634 584.415 582.305 584.802 582.001L585.069 581.767L581.892 577.656C581.556 577.77 581.29 578.004 580.903 578.308Z" fill="black"/>
<g style="mix-blend-mode:overlay">
<path d="M173.696 112.395C173.696 113.499 172.801 114.395 171.696 114.395C170.591 114.395 169.696 113.499 169.696 112.395C169.696 111.29 170.591 110.395 171.696 110.395C172.801 110.395 173.696 111.29 173.696 112.395Z" fill="black"/>
</g>
<g style="mix-blend-mode:overlay">
<path d="M578.195 86.7655C578.195 87.8701 577.3 88.7655 576.195 88.7655C575.09 88.7655 574.195 87.8701 574.195 86.7655C574.195 85.6609 575.09 84.7655 576.195 84.7655C577.3 84.7655 578.195 85.6609 578.195 86.7655Z" fill="black"/>
</g>
</g>
</svg>
